<svg width="24" height="22" viewBox="0 0 24 22" fill="none" xmlns="http://www.w3.org/2000/svg">
<g clip-path="url(#clip0_19252_650)">
<path d="M17.1133 10.9758V5.88104H6.88673V10.9758H1.77344V21.1653H6.88673H17.1133H22.2266V10.9758H17.1133Z" fill="#9AB8F6"/>
<path d="M2.79614 10.9758H1.77344V21.1654H2.79614V10.9758Z" fill="#E8E6F4"/>
<path d="M18.136 10.9758H17.1133V21.1654H18.136V10.9758Z" fill="#E8E6F4"/>
<path d="M8.01684 5.88104H6.99414V21.1653H8.01684V5.88104Z" fill="#E8E6F4"/>
<path d="M17.1134 21.4792H6.88678C6.71279 21.4792 6.57178 21.3387 6.57178 21.1653V5.88106C6.57178 5.7077 6.71279 5.5672 6.88678 5.5672H17.1134C17.2873 5.5672 17.4284 5.7077 17.4284 5.88106V21.1653C17.4284 21.3387 17.2872 21.4792 17.1134 21.4792ZM7.20178 20.8515H16.7984V6.19492H7.20178V20.8515Z" fill="#253183"/>
<path d="M22.2266 21.4792H17.1133C16.9394 21.4792 16.7983 21.3387 16.7983 21.1653V10.9758C16.7983 10.8024 16.9394 10.6619 17.1133 10.6619H22.2266C22.4006 10.6619 22.5416 10.8024 22.5416 10.9758V21.1653C22.5416 21.3387 22.4006 21.4792 22.2266 21.4792ZM17.4283 20.8515H21.9116V11.2896H17.4283V20.8515Z" fill="#253183"/>
<path d="M6.88679 21.4792H1.7735C1.59951 21.4792 1.4585 21.3387 1.4585 21.1653V10.9758C1.4585 10.8024 1.59951 10.6619 1.7735 10.6619H6.88679C7.06077 10.6619 7.20179 10.8024 7.20179 10.9758V21.1653C7.20179 21.3387 7.06077 21.4792 6.88679 21.4792ZM2.0885 20.8515H6.57179V11.2896H2.0885V20.8515Z" fill="#253183"/>
<path d="M10.9774 7.91895H8.93213V9.95683H10.9774V7.91895Z" fill="#FCC800"/>
<path d="M15.0682 7.91895H13.0229V9.95683H15.0682V7.91895Z" fill="#FCC800"/>
<path d="M10.9774 11.9948H8.93213V14.0327H10.9774V11.9948Z" fill="#FCC800"/>
<path d="M20.6928 11.9948H18.6475V14.0327H20.6928V11.9948Z" fill="#FCC800"/>
<path d="M20.6928 16.0706H18.6475V18.1084H20.6928V16.0706Z" fill="#FCC800"/>
<path d="M5.35291 11.9948H3.30762V14.0327H5.35291V11.9948Z" fill="#FCC800"/>
<path d="M5.35291 16.0706H3.30762V18.1084H5.35291V16.0706Z" fill="#FCC800"/>
<path d="M15.0682 11.9948H13.0229V14.0327H15.0682V11.9948Z" fill="#FCC800"/>
<path d="M10.9775 10.2708H8.93219C8.7582 10.2708 8.61719 10.1303 8.61719 9.95695V7.91896C8.61719 7.74561 8.7582 7.6051 8.93219 7.6051H10.9775C11.1515 7.6051 11.2925 7.74561 11.2925 7.91896V9.95685C11.2925 10.1303 11.1515 10.2708 10.9775 10.2708ZM9.24719 9.64309H10.6625V8.23282H9.24719V9.64309Z" fill="#253183"/>
<path d="M15.0683 10.2708H13.023C12.849 10.2708 12.708 10.1303 12.708 9.95695V7.91896C12.708 7.74561 12.849 7.6051 13.023 7.6051H15.0683C15.2423 7.6051 15.3833 7.74561 15.3833 7.91896V9.95685C15.3833 10.1303 15.2422 10.2708 15.0683 10.2708ZM13.338 9.64309H14.7533V8.23282H13.338V9.64309Z" fill="#253183"/>
<path d="M10.9775 14.3466H8.93219C8.7582 14.3466 8.61719 14.2061 8.61719 14.0327V11.9948C8.61719 11.8215 8.7582 11.681 8.93219 11.681H10.9775C11.1515 11.681 11.2925 11.8215 11.2925 11.9948V14.0327C11.2925 14.2061 11.1515 14.3466 10.9775 14.3466ZM9.24719 13.7189H10.6625V12.3087H9.24719V13.7189Z" fill="#253183"/>
<path d="M20.6928 14.3466H18.6475C18.4735 14.3466 18.3325 14.2061 18.3325 14.0327V11.9948C18.3325 11.8215 18.4735 11.681 18.6475 11.681H20.6928C20.8668 11.681 21.0078 11.8215 21.0078 11.9948V14.0327C21.0078 14.2061 20.8667 14.3466 20.6928 14.3466ZM18.9624 13.7189H20.3777V12.3087H18.9624V13.7189Z" fill="#253183"/>
<path d="M20.6928 18.4223H18.6475C18.4735 18.4223 18.3325 18.2818 18.3325 18.1085V16.0706C18.3325 15.8972 18.4735 15.7567 18.6475 15.7567H20.6928C20.8668 15.7567 21.0078 15.8972 21.0078 16.0706V18.1085C21.0078 18.2818 20.8667 18.4223 20.6928 18.4223ZM18.9624 17.7946H20.3777V16.3844H18.9624V17.7946Z" fill="#253183"/>
<path d="M5.35308 14.3466H3.30768C3.13369 14.3466 2.99268 14.2061 2.99268 14.0327V11.9948C2.99268 11.8215 3.13369 11.681 3.30768 11.681H5.35297C5.52696 11.681 5.66797 11.8215 5.66797 11.9948V14.0327C5.66808 14.2061 5.52706 14.3466 5.35308 14.3466ZM3.62268 13.7189H5.03797V12.3087H3.62268V13.7189Z" fill="#253183"/>
<path d="M5.35308 18.4223H3.30768C3.13369 18.4223 2.99268 18.2818 2.99268 18.1085V16.0706C2.99268 15.8972 3.13369 15.7567 3.30768 15.7567H5.35297C5.52696 15.7567 5.66797 15.8972 5.66797 16.0706V18.1085C5.66808 18.2818 5.52706 18.4223 5.35308 18.4223ZM3.62268 17.7946H5.03797V16.3844H3.62268V17.7946Z" fill="#253183"/>
<path d="M15.0683 14.3466H13.023C12.849 14.3466 12.708 14.2061 12.708 14.0327V11.9948C12.708 11.8215 12.849 11.681 13.023 11.681H15.0683C15.2423 11.681 15.3833 11.8215 15.3833 11.9948V14.0327C15.3833 14.2061 15.2422 14.3466 15.0683 14.3466ZM13.338 13.7189H14.7533V12.3087H13.338V13.7189Z" fill="#253183"/>
<path d="M14.0457 17.7238H9.95508V21.1653H14.0457V17.7238Z" fill="#FCC800"/>
<path d="M14.0457 21.4792H9.95514C9.78115 21.4792 9.64014 21.3387 9.64014 21.1653V17.7238C9.64014 17.5504 9.78115 17.4099 9.95514 17.4099H14.0457C14.2197 17.4099 14.3607 17.5504 14.3607 17.7238V21.1653C14.3607 21.3387 14.2197 21.4792 14.0457 21.4792ZM10.2701 20.8515H13.7307V18.0376H10.2701V20.8515Z" fill="#253183"/>
<path d="M12.3151 17.7238H11.6851V21.1653H12.3151V17.7238Z" fill="#253183"/>
<path d="M15.0681 17.7238H8.93213V16.5937C8.93213 16.3048 9.16722 16.0706 9.45713 16.0706H14.5431C14.833 16.0706 15.0681 16.3048 15.0681 16.5937V17.7238Z" fill="#EB6B69"/>
<path d="M15.0682 18.0376H8.93219C8.7582 18.0376 8.61719 17.8971 8.61719 17.7238V16.5937C8.61719 16.1322 8.99403 15.7567 9.45719 15.7567H14.5432C15.0063 15.7567 15.3832 16.1322 15.3832 16.5937V17.7238C15.3832 17.8971 15.2421 18.0376 15.0682 18.0376ZM9.24719 17.4099H14.7532V16.5937C14.7532 16.4783 14.659 16.3844 14.5432 16.3844H9.45719C9.34137 16.3844 9.24719 16.4783 9.24719 16.5937V17.4099Z" fill="#253183"/>
<path d="M10.2701 16.0706H9.64014V17.7238H10.2701V16.0706Z" fill="#253183"/>
<path d="M11.2926 16.0706H10.6626V17.7238H11.2926V16.0706Z" fill="#253183"/>
<path d="M12.3151 16.0706H11.6851V17.7238H12.3151V16.0706Z" fill="#253183"/>
<path d="M13.338 16.0706H12.708V17.7238H13.338V16.0706Z" fill="#253183"/>
<path d="M14.3605 16.0706H13.7305V17.7238H14.3605V16.0706Z" fill="#253183"/>
<path d="M18.1361 3.84314H5.86426V5.88102H18.1361V3.84314Z" fill="#8479B9"/>
<path d="M6.88697 8.93793H0.750977V10.9758H6.88697V8.93793Z" fill="#8479B9"/>
<path d="M1.77368 8.93793H0.750977V10.9758H1.77368V8.93793Z" fill="#E8E6F4"/>
<path d="M6.88696 3.84314H5.86426V5.88102H6.88696V3.84314Z" fill="#E8E6F4"/>
<path d="M23.2493 8.93793H17.1133V10.9758H23.2493V8.93793Z" fill="#8479B9"/>
<path d="M18.136 8.93793H17.1133V10.9758H18.136V8.93793Z" fill="#E8E6F4"/>
<path d="M18.1363 6.1949H5.86432C5.69033 6.1949 5.54932 6.05439 5.54932 5.88104V3.84316C5.54932 3.6698 5.69033 3.5293 5.86432 3.5293H18.1362C18.3102 3.5293 18.4512 3.6698 18.4512 3.84316V5.88104C18.4513 6.05439 18.3102 6.1949 18.1363 6.1949ZM6.17932 5.56718H17.8212V4.15701H6.17932V5.56718Z" fill="#253183"/>
<path d="M6.88692 11.2897H0.751035C0.57705 11.2897 0.436035 11.1492 0.436035 10.9758V8.93794C0.436035 8.76459 0.57705 8.62408 0.751035 8.62408H6.88703C7.06101 8.62408 7.20203 8.76459 7.20203 8.93794V10.9758C7.20192 11.1492 7.06091 11.2897 6.88692 11.2897ZM1.06604 10.662H6.57203V9.2518H1.06604V10.662Z" fill="#253183"/>
<path d="M23.2493 11.2897H17.1133C16.9394 11.2897 16.7983 11.1492 16.7983 10.9758V8.93794C16.7983 8.76459 16.9394 8.62408 17.1133 8.62408H23.2493C23.4233 8.62408 23.5643 8.76459 23.5643 8.93794V10.9758C23.5643 11.1492 23.4233 11.2897 23.2493 11.2897ZM17.4284 10.662H22.9344V9.2518H17.4284V10.662Z" fill="#253183"/>
<path d="M5.86414 9.64307H3.81885V10.2708H5.86414V9.64307Z" fill="#253183"/>
<path d="M3.09399 9.64307H2.07129V10.2708H3.09399V9.64307Z" fill="#253183"/>
<path d="M22.4408 9.64307H20.3955V10.2708H22.4408V9.64307Z" fill="#253183"/>
<path d="M19.6702 9.64307H18.6475V10.2708H19.6702V9.64307Z" fill="#253183"/>
<path d="M17.1134 4.54828H16.0908V5.176H17.1134V4.54828Z" fill="#253183"/>
<path d="M15.068 4.54828H6.88672V5.176H15.068V4.54828Z" fill="#253183"/>
<path d="M6.83196 0.892894L7.05928 1.35176C7.07461 1.38262 7.10412 1.40407 7.13835 1.40898L7.64665 1.48253C7.73275 1.49498 7.76719 1.60044 7.70482 1.66101L7.33701 2.01818C7.31223 2.04224 7.30099 2.07687 7.30677 2.11077L7.3936 2.61514C7.4083 2.70062 7.31832 2.76579 7.24125 2.72541L6.7866 2.4873C6.75604 2.47129 6.7195 2.47129 6.68884 2.4873L6.23419 2.72541C6.15712 2.76579 6.06714 2.70062 6.08184 2.61514L6.16867 2.11077C6.17455 2.07687 6.16321 2.04224 6.13843 2.01818L5.77062 1.66101C5.70825 1.60044 5.74269 1.49498 5.82879 1.48253L6.33709 1.40898C6.37132 1.40407 6.40083 1.38262 6.41616 1.35176L6.64348 0.892894C6.68223 0.815162 6.79342 0.815162 6.83196 0.892894Z" fill="#FCC800"/>
<path d="M9.4633 0.892894L9.69063 1.35176C9.70596 1.38262 9.73546 1.40407 9.76969 1.40898L10.278 1.48253C10.3641 1.49498 10.3985 1.60044 10.3362 1.66101L9.96835 2.01818C9.94357 2.04224 9.93234 2.07687 9.93811 2.11077L10.0249 2.61514C10.0396 2.70062 9.94966 2.76579 9.87259 2.72541L9.41794 2.4873C9.38739 2.47129 9.35085 2.47129 9.32019 2.4873L8.86554 2.72541C8.78847 2.76579 8.69848 2.70062 8.71318 2.61514L8.80002 2.11077C8.8059 2.07687 8.79456 2.04224 8.76978 2.01818L8.40196 1.66101C8.33959 1.60044 8.37403 1.49498 8.46013 1.48253L8.96844 1.40898C9.00267 1.40407 9.03217 1.38262 9.0475 1.35176L9.27483 0.892894C9.31357 0.815162 9.42477 0.815162 9.4633 0.892894Z" fill="#FCC800"/>
<path d="M12.0942 0.892894L12.3215 1.35176C12.3368 1.38262 12.3663 1.40407 12.4006 1.40898L12.9089 1.48253C12.995 1.49498 13.0294 1.60044 12.967 1.66101L12.5992 2.01818C12.5744 2.04224 12.5632 2.07687 12.569 2.11077L12.6558 2.61514C12.6705 2.70062 12.5805 2.76579 12.5035 2.72541L12.0488 2.4873C12.0182 2.47129 11.9817 2.47129 11.951 2.4873L11.4964 2.72541C11.4193 2.76579 11.3293 2.70062 11.344 2.61514L11.4309 2.11077C11.4368 2.07687 11.4254 2.04224 11.4006 2.01818L11.0328 1.66101C10.9705 1.60044 11.0049 1.49498 11.091 1.48253L11.5993 1.40898C11.6335 1.40407 11.663 1.38262 11.6784 1.35176L11.9057 0.892894C11.9444 0.815162 12.0557 0.815162 12.0942 0.892894Z" fill="#FCC800"/>
<path d="M14.7255 0.892894L14.9528 1.35176C14.9682 1.38262 14.9977 1.40407 15.0319 1.40898L15.5402 1.48253C15.6263 1.49498 15.6607 1.60044 15.5984 1.66101L15.2306 2.01818C15.2058 2.04224 15.1945 2.07687 15.2003 2.11077L15.2872 2.61514C15.3019 2.70062 15.2119 2.76579 15.1348 2.72541L14.6802 2.4873C14.6496 2.47129 14.6131 2.47129 14.5824 2.4873L14.1277 2.72541C14.0507 2.76579 13.9607 2.70062 13.9754 2.61514L14.0622 2.11077C14.0681 2.07687 14.0568 2.04224 14.032 2.01818L13.6642 1.66101C13.6018 1.60044 13.6362 1.49498 13.7223 1.48253L14.2306 1.40898C14.2649 1.40407 14.2944 1.38262 14.3097 1.35176L14.537 0.892894C14.5757 0.815162 14.687 0.815162 14.7255 0.892894Z" fill="#FCC800"/>
<path d="M17.3569 0.892894L17.5842 1.35176C17.5995 1.38262 17.629 1.40407 17.6632 1.40898L18.1716 1.48253C18.2577 1.49498 18.2921 1.60044 18.2297 1.66101L17.8619 2.01818C17.8371 2.04224 17.8259 2.07687 17.8317 2.11077L17.9185 2.61514C17.9332 2.70062 17.8432 2.76579 17.7661 2.72541L17.3115 2.4873C17.2809 2.47129 17.2444 2.47129 17.2137 2.4873L16.7591 2.72541C16.682 2.76579 16.592 2.70062 16.6067 2.61514L16.6936 2.11077C16.6995 2.07687 16.6881 2.04224 16.6633 2.01818L16.2955 1.66101C16.2331 1.60044 16.2676 1.49498 16.3537 1.48253L16.862 1.40898C16.8962 1.40407 16.9257 1.38262 16.9411 1.35176L17.1684 0.892894C17.207 0.815162 17.3183 0.815162 17.3569 0.892894Z" fill="#FCC800"/>
</g>
<defs>
<clipPath id="clip0_19252_650">
<rect width="24" height="22" fill="white"/>
</clipPath>
</defs>
</svg>
