<svg width="20" height="22" viewBox="0 0 20 22" fill="none" xmlns="http://www.w3.org/2000/svg">
<path d="M14.8313 0.429688L19.0876 4.68605V19.2498H4.10693V0.429688H14.8313Z" fill="#9AB8F6"/>
<path d="M13.6418 15.268C13.6418 11.3623 10.4643 8.18481 6.55862 8.18481C5.65792 8.18481 4.79611 8.35416 4.00293 8.66208V19.2498H12.4136C13.1883 18.1143 13.6418 16.7432 13.6418 15.268Z" fill="#8479B9"/>
<path d="M14.8311 4.68605V0.429688L19.0874 4.68605H14.8311Z" fill="#8479B9"/>
<path d="M7.79007 9.59875L10 10.2956L12.477 10.3815H16.1865C16.234 10.3815 16.2725 10.343 16.2725 10.2956V7.49304C16.2725 7.44556 16.234 7.4071 16.1865 7.4071H7.00733C6.95984 7.4071 6.92139 7.44556 6.92139 7.49304V8.19406L7.70413 9.51281C7.70413 9.56025 7.74263 9.59875 7.79007 9.59875Z" fill="#FCC800"/>
<path d="M6.92139 8.19403V11.2955C6.92139 11.343 6.95984 11.3815 7.00733 11.3815H12.477C11.2718 9.55219 9.24237 8.31177 6.92139 8.19403Z" fill="#8479B9"/>
<path d="M0.724795 21.2759C1.11827 21.6694 1.75625 21.6694 2.14973 21.2759L6.42207 17.0035L4.99714 15.5786L0.724795 19.851C0.331318 20.2444 0.331318 20.8824 0.724795 21.2759Z" fill="#FCC800"/>
<path d="M6.55871 20.2027C9.28406 20.2027 11.4934 17.9934 11.4934 15.2681C11.4934 12.5427 9.28406 10.3334 6.55871 10.3334C3.83336 10.3334 1.62402 12.5427 1.62402 15.2681C1.62402 17.9934 3.83336 20.2027 6.55871 20.2027Z" fill="#9AB8F6"/>
<path d="M16.2727 15.5281H11.5972C11.3599 15.5281 11.1675 15.7205 11.1675 15.9578C11.1675 16.1952 11.3599 16.3875 11.5972 16.3875H16.2727C16.51 16.3875 16.7024 16.1952 16.7024 15.9578C16.7024 15.7205 16.51 15.5281 16.2727 15.5281Z" fill="#FCC800"/>
<path d="M16.2727 14.0797C16.51 14.0797 16.7024 13.8873 16.7024 13.65C16.7024 13.4127 16.51 13.2203 16.2727 13.2203H11.3589C11.1216 13.2203 10.9292 13.4127 10.9292 13.65C10.9292 13.8873 11.1216 14.0797 11.3589 14.0797H16.2727Z" fill="#FCC800"/>
<path d="M15.1707 3.70717C15.1707 3.46984 14.9784 3.27747 14.741 3.27747H8.36329C8.12597 3.27747 7.93359 3.46984 7.93359 3.70717C7.93359 3.94449 8.12597 4.13687 8.36329 4.13687H14.741C14.9784 4.13687 15.1707 3.94449 15.1707 3.70717Z" fill="#9AB8F6"/>
<path d="M7.76007 17.3862H6.98845V14.6757C6.98845 14.4383 6.79607 14.246 6.55875 14.246H5.35744C5.12011 14.246 4.92773 14.4383 4.92773 14.6757C4.92773 14.913 5.12011 15.1054 5.35744 15.1054H6.12905V17.3862H5.35744C5.12011 17.3862 4.92773 17.5786 4.92773 17.8159C4.92773 18.0532 5.12011 18.2456 5.35744 18.2456H7.76002C7.99735 18.2456 8.18972 18.0532 8.18972 17.8159C8.18972 17.5786 7.99739 17.3862 7.76007 17.3862Z" fill="#1E2358"/>
<path d="M6.55861 13.57C6.79593 13.57 6.98831 13.3776 6.98831 13.1403V12.7202C6.98831 12.4829 6.79593 12.2905 6.55861 12.2905C6.32128 12.2905 6.12891 12.4829 6.12891 12.7202V13.1403C6.12891 13.3776 6.32128 13.57 6.55861 13.57Z" fill="#1E2358"/>
<path d="M19.3914 4.38222L15.1351 0.125859C15.0545 0.0452905 14.9452 0 14.8312 0H4.10682C3.8695 0 3.67712 0.192377 3.67712 0.429701V10.7451C2.18537 11.6989 1.19431 13.3699 1.19431 15.268C1.19431 16.2714 1.47147 17.2112 1.95286 18.0152L0.420978 19.5471C0.149536 19.8185 0 20.1795 0 20.5634C0 20.9473 0.149493 21.3082 0.420978 21.5797C0.701186 21.8599 1.06922 22 1.43726 22C1.8053 22 2.17338 21.8599 2.45359 21.5797L4.03356 19.9997C4.78657 20.4032 5.64631 20.6324 6.5587 20.6324C7.69143 20.6324 8.74308 20.2792 9.60992 19.6775C9.62281 19.6787 19.0876 19.6795 19.0876 19.6795C19.3249 19.6795 19.5173 19.4871 19.5173 19.2498V4.68606C19.5172 4.57206 19.472 4.46279 19.3914 4.38222ZM15.2609 1.46708L18.0502 4.25636H15.2609V1.46708ZM1.84595 20.972C1.62062 21.1973 1.25404 21.1974 1.02866 20.972C0.919517 20.8629 0.859402 20.7178 0.859402 20.5634C0.859402 20.4091 0.919517 20.264 1.02866 20.1548L2.45944 18.724C2.70862 19.0191 2.98891 19.287 3.29538 19.5226L1.84595 20.972ZM2.05371 15.268C2.05371 12.784 4.07464 10.7631 6.5587 10.7631C9.04276 10.7631 11.0637 12.784 11.0637 15.268C11.0637 17.7521 9.04276 19.773 6.5587 19.773C4.07464 19.773 2.05371 17.7521 2.05371 15.268ZM10.5749 18.8201C11.4132 17.8733 11.9231 16.6292 11.9231 15.268C11.9231 12.3101 9.51667 9.90366 6.55874 9.90366C5.84368 9.90366 5.16097 10.0446 4.53657 10.2998V0.859402H14.4016V4.68606C14.4016 4.92338 14.5939 5.11576 14.8313 5.11576H18.6579V18.8201H10.5749Z" fill="#1E2358"/>
</svg>
