<svg width="24" height="21" viewBox="0 0 24 21" fill="none" xmlns="http://www.w3.org/2000/svg">
<path d="M1.68041 14.6557H0.395752V15.851C1.10522 15.851 1.68041 16.3861 1.68041 17.0462V18.1776C1.68041 19.5331 2.86141 20.6319 4.31833 20.6319H8.03475C9.49166 20.6319 10.6727 19.5331 10.6727 18.1776V14.6558H1.68041V14.6557Z" fill="#D8DBDF"/>
<path d="M22.2342 14.6557H13.2419V18.1775C13.2419 19.533 14.4229 20.6318 15.8799 20.6318H19.5963C21.0532 20.6318 22.2342 19.533 22.2342 18.1775V17.0461C22.2342 16.386 22.8094 15.8509 23.5188 15.8509V14.6556L22.2342 14.6557Z" fill="#D8DBDF"/>
<path d="M14.5264 18.1775V14.6557H13.2417V18.1775C13.2417 19.533 14.4227 20.6318 15.8796 20.6318H17.1643C15.7074 20.6318 14.5264 19.533 14.5264 18.1775Z" fill="#F7F8F8"/>
<path d="M4.31835 19.1592C3.73656 19.1592 3.26318 18.7188 3.26318 18.1775V16.1284H9.08993V18.1775C9.08993 18.7188 8.61656 19.1592 8.03477 19.1592H4.31835Z" fill="#8E95A2"/>
<path d="M2.96508 18.1775V16.7329C2.96508 15.9966 2.57071 15.0149 1.68041 15.0149V14.6557H0.395752V15.851C1.10522 15.851 1.68041 16.3861 1.68041 17.0462V18.1776C1.68041 19.5331 2.86141 20.6319 4.31833 20.6319H5.60299C4.14607 20.6318 2.96508 19.533 2.96508 18.1775Z" fill="#F7F8F8"/>
<path d="M4.54785 18.1775V16.1284H3.26318V18.1775C3.26318 18.7188 3.73656 19.1592 4.31835 19.1592H5.60301C5.02122 19.1592 4.54785 18.7188 4.54785 18.1775Z" fill="#F7F8F8"/>
<path d="M15.8799 19.1592C15.2981 19.1592 14.8247 18.7188 14.8247 18.1775V16.1284H20.6515V18.1775C20.6515 18.7188 20.1781 19.1592 19.5963 19.1592H15.8799Z" fill="#8E95A2"/>
<path d="M16.1091 18.1775V16.1284H14.8245V18.1775C14.8245 18.7188 15.2978 19.1592 15.8796 19.1592H17.1643C16.5825 19.1592 16.1091 18.7188 16.1091 18.1775Z" fill="#F7F8F8"/>
<path d="M8.0347 19.5274H4.31828C3.51834 19.5274 2.86743 18.9218 2.86743 18.1775V16.1283C2.86743 15.925 3.04457 15.7602 3.26312 15.7602H9.08987C9.30842 15.7602 9.48556 15.925 9.48556 16.1283V18.1775C9.48556 18.9218 8.83478 19.5274 8.0347 19.5274ZM3.65881 16.4965V18.1775C3.65881 18.5158 3.95465 18.7911 4.31828 18.7911H8.0347C8.39834 18.7911 8.69418 18.5158 8.69418 18.1775V16.4965H3.65881Z" fill="#5B616E"/>
<path d="M19.5962 19.5274H15.8798C15.0799 19.5274 14.429 18.9218 14.429 18.1775V16.1283C14.429 15.925 14.6061 15.7602 14.8246 15.7602H20.6514C20.8699 15.7602 21.0471 15.925 21.0471 16.1283V18.1775C21.0471 18.9218 20.3962 19.5274 19.5962 19.5274ZM15.2203 16.4965V18.1775C15.2203 18.5158 15.5162 18.7911 15.8798 18.7911H19.5962C19.9599 18.7911 20.2557 18.5158 20.2557 18.1775V16.4965H15.2203Z" fill="#5B616E"/>
<path d="M13.2418 15.851H10.6726V17.0463H13.2418V15.851Z" fill="#B6BAC3"/>
<path d="M13.2419 17.4143H10.6725C10.454 17.4143 10.2769 17.2495 10.2769 17.0462V15.8509C10.2769 15.6475 10.454 15.4827 10.6725 15.4827H13.2417C13.4603 15.4827 13.6374 15.6475 13.6374 15.8509V17.0462C13.6376 17.2495 13.4603 17.4143 13.2419 17.4143ZM11.0682 16.678H12.846V16.219H11.0682V16.678Z" fill="#5B616E"/>
<path d="M8.03468 21H4.31826C2.64556 21 1.28466 19.7338 1.28466 18.1775V17.0462C1.28466 16.5902 0.885942 16.2191 0.395687 16.2191C0.177136 16.2191 0 16.0542 0 15.8509V14.6558C0 14.4524 0.177136 14.2876 0.395687 14.2876H10.6726C10.8911 14.2876 11.0683 14.4524 11.0683 14.6558V18.1775C11.0683 19.7338 9.70738 21 8.03468 21ZM0.791506 15.5266C1.52775 15.6925 2.07617 16.3108 2.07617 17.0462V18.1775C2.07617 19.3279 3.082 20.2637 4.31839 20.2637H8.03468C9.27107 20.2637 10.2769 19.3279 10.2769 18.1775V15.0239H0.791506V15.5266Z" fill="#5B616E"/>
<path d="M19.5962 21H15.8798C14.2071 21 12.8462 19.7338 12.8462 18.1775V14.6558C12.8462 14.4524 13.0233 14.2876 13.2419 14.2876H23.5188C23.7373 14.2876 23.9145 14.4524 23.9145 14.6558V15.8509C23.9145 16.0542 23.7373 16.2191 23.5188 16.2191C23.0287 16.2191 22.6298 16.59 22.6298 17.0462V18.1775C22.6298 19.7338 21.2689 21 19.5962 21ZM13.6376 15.0239V18.1775C13.6376 19.3279 14.6434 20.2637 15.8798 20.2637H19.5962C20.8326 20.2637 21.8384 19.3279 21.8384 18.1775V17.0462C21.8384 16.3108 22.3869 15.6925 23.1231 15.5266V15.0239H13.6376Z" fill="#5B616E"/>
<path d="M22.2341 12.5376H1.68028L0.395752 9.87488H23.5186L22.2341 12.5376Z" fill="#B6BAC3"/>
<path d="M0.395752 9.87488L1.68028 12.5376H2.96495L1.68028 9.87488H0.395752Z" fill="#F7F8F8"/>
<path d="M22.2342 9.87488V8.67961V6.28919L17.5671 0.943589C17.2757 0.587707 16.7334 0.368164 16.1461 0.368164H14.6597C14.0513 0.368164 13.4931 0.60366 13.2105 0.979668C12.6805 1.68456 11.2343 1.68456 10.7043 0.979668C10.4217 0.60366 9.86348 0.368164 9.25505 0.368164H7.76872C7.18139 0.368164 6.63916 0.587829 6.34768 0.943589L1.68042 6.28919V8.67961V9.87488H11.9573H22.2342Z" fill="#B6BAC3"/>
<path d="M8.43703 0.452839C8.62986 0.398107 8.83839 0.368164 9.05325 0.368164H8.51182H7.76872C7.18139 0.368164 6.63917 0.587829 6.34768 0.943589L1.68042 6.28919V8.11094V8.67961V9.87488H2.96508V8.67961V6.65501L8.43703 0.452839Z" fill="#F7F8F8"/>
<path d="M22.2342 12.9058H1.68037C1.52447 12.9058 1.38321 12.8207 1.31937 12.6884L0.034705 10.0257C-0.0202954 9.91181 -0.00934776 9.77976 0.0634586 9.67496C0.136397 9.57016 0.261433 9.50684 0.395703 9.50684H23.5186C23.6528 9.50684 23.7779 9.57016 23.8508 9.67496C23.9238 9.77976 23.9346 9.91181 23.8796 10.0257L22.5949 12.6884C22.5312 12.8206 22.3899 12.9058 22.2342 12.9058ZM1.93651 12.1694H21.9779L22.9072 10.243H1.00717L1.93651 12.1694Z" fill="#5B616E"/>
<path d="M22.2342 10.243H1.68035C1.4618 10.243 1.28467 10.0782 1.28467 9.87487V6.28918C1.28467 6.20462 1.31593 6.12265 1.37317 6.05699L6.04029 0.711396C6.40222 0.269243 7.05114 0 7.76852 0H9.25485C9.99228 0 10.6719 0.294523 11.0283 0.768583C11.2007 0.99782 11.5566 1.14017 11.9573 1.14017C12.3578 1.14017 12.7137 0.99782 12.8861 0.768583C13.2426 0.294523 13.9221 0 14.6597 0H16.146C16.8635 0 17.5123 0.269366 17.8817 0.720477L22.5413 6.05699C22.5986 6.12265 22.6299 6.20462 22.6299 6.28918V9.87487C22.6299 10.0781 22.4526 10.243 22.2342 10.243ZM2.07604 9.50672H21.8383V6.41987L17.2597 1.17576C17.038 0.905291 16.6038 0.736308 16.1459 0.736308H14.6595C14.1837 0.736308 13.7419 0.914617 13.5345 1.19061C13.2117 1.62 12.622 1.87636 11.9573 1.87636C11.2925 1.87636 10.7028 1.62 10.3799 1.19061C10.1724 0.914617 9.73086 0.736308 9.25485 0.736308H7.76865C7.31071 0.736308 6.87651 0.905168 6.66231 1.16668L2.07604 6.41987V9.50672Z" fill="#5B616E"/>
<path d="M22.2341 6.28918H1.68042V8.67961H22.2341V6.28918Z" fill="#D8DBDF"/>
<path d="M2.96508 6.28918H1.68042V8.67961H2.96508V6.28918Z" fill="#F7F8F8"/>
<path d="M22.2342 9.04775H1.68035C1.4618 9.04775 1.28467 8.88294 1.28467 8.6796V6.28917C1.28467 6.08583 1.4618 5.92102 1.68035 5.92102H22.234C22.4526 5.92102 22.6297 6.08583 22.6297 6.28917V8.6796C22.6299 8.88294 22.4526 9.04775 22.2342 9.04775ZM2.07604 8.31145H21.8383V6.65733H2.07604V8.31145Z" fill="#5B616E"/>
<path d="M18.4153 3.66692L17.801 4.13116L18.8686 5.35403L19.4829 4.88979L18.4153 3.66692Z" fill="#5B616E"/>
<path d="M17.0556 3.29987L16.1211 2.2089H14.6597V1.4726H16.146C16.3227 1.4726 16.448 1.51518 16.5069 1.54046C16.5628 1.56451 16.6119 1.60034 16.6502 1.64514L17.6745 2.8409L17.0556 3.29987Z" fill="#5B616E"/>
<path d="M20.9495 10.8381H11.9573V11.5744H20.9495V10.8381Z" fill="#5B616E"/>
<path d="M10.6725 10.8381H8.70386V11.5744H10.6725V10.8381Z" fill="#5B616E"/>
</svg>
