<svg width="18" height="20" viewBox="0 0 18 20" fill="none" xmlns="http://www.w3.org/2000/svg">
<path d="M13.827 2.05276L15.8767 15.9475C16 16.7828 15.4236 17.5626 14.5852 17.6859L3.95458 19.2548C3.1193 19.378 2.33949 18.8017 2.2162 17.9633L0.166509 4.06546C0.0432189 3.23018 0.619598 2.45037 1.45797 2.32708L12.0886 0.75822C12.927 0.638012 13.7037 1.21439 13.827 2.05276Z" fill="#C3D3FA"/>
<path d="M3.72902 19.4181C2.90915 19.4181 2.19098 18.8171 2.06769 17.9849L0.0180024 4.08703C-0.0467247 3.64318 0.0642361 3.19934 0.332391 2.8418C0.600546 2.48426 0.991991 2.24693 1.43583 2.1822L12.0665 0.613339C12.5103 0.548612 12.9542 0.659573 13.3117 0.927728C13.6723 1.19588 13.9066 1.58733 13.9713 2.03117L16.0179 15.9259C16.1535 16.8413 15.5186 17.6982 14.6001 17.8338L3.9756 19.3996C3.89238 19.4119 3.81224 19.4181 3.72902 19.4181ZM12.3161 0.893823C12.2483 0.893823 12.1805 0.899988 12.1127 0.909235L1.47899 2.4781C1.11528 2.53049 0.791645 2.72468 0.572806 3.02057C0.353967 3.31647 0.2615 3.68017 0.313898 4.04696L2.36359 17.9417C2.47455 18.6938 3.1773 19.2178 3.93245 19.1068L14.5631 17.5379C15.3152 17.427 15.8391 16.7242 15.7282 15.9691L13.6785 2.07432C13.6261 1.71062 13.4319 1.38698 13.136 1.16814C12.8956 0.986291 12.609 0.893823 12.3161 0.893823Z" fill="#1E2358"/>
<path d="M17.8488 1.6798L17.8457 15.7256C17.8457 16.5701 17.1615 17.2544 16.3169 17.2544H5.57225C4.72771 17.2544 4.04346 16.5701 4.04346 15.7256V1.6798C4.04346 0.835269 4.72771 0.151011 5.57225 0.151011H16.32C17.1646 0.147929 17.8488 0.835269 17.8488 1.6798Z" fill="#9AB8F6"/>
<path d="M17.8459 15.1276V15.7256C17.8459 16.5701 17.1616 17.2544 16.3171 17.2544H5.5724C4.72787 17.2544 4.04053 16.5701 4.04053 15.7256V15.1276C4.04053 15.9722 4.72787 16.6564 5.5724 16.6564H16.3171C17.1616 16.6595 17.8459 15.9752 17.8459 15.1276Z" fill="#E8E6F4"/>
<path d="M16.3171 17.4054H5.5724C4.64773 17.4054 3.89258 16.6534 3.89258 15.7256V1.67982C3.89258 0.755149 4.64464 0 5.5724 0H16.3202C16.7702 0 17.1894 0.175688 17.5068 0.493159C17.8243 0.81063 18 1.2329 18 1.67982L17.9969 15.7256C17.9969 16.6503 17.2418 17.4054 16.3171 17.4054ZM5.5724 0.298977C4.81109 0.298977 4.19156 0.918508 4.19156 1.67982V15.7256C4.19156 16.4869 4.81109 17.1064 5.5724 17.1064H16.3171C17.0784 17.1064 17.6979 16.4869 17.6979 15.7256L17.701 1.67982C17.701 1.30995 17.5562 0.964742 17.2972 0.702751C17.0353 0.440761 16.69 0.298977 16.3202 0.298977H5.5724Z" fill="#1E2358"/>
<path d="M15.6695 1.6582H6.19164C5.79712 1.6582 5.47656 1.97876 5.47656 2.37328V4.03153C5.47656 4.42606 5.79712 4.74661 6.19164 4.74661H15.6695C16.0641 4.74661 16.3846 4.42606 16.3846 4.03153V2.37328C16.3815 1.97876 16.0641 1.6582 15.6695 1.6582Z" fill="#8479B9"/>
<path d="M16.3815 3.40277V4.14867C16.3815 4.47847 16.1134 4.74663 15.7836 4.74663H6.07452C5.74472 4.74663 5.47656 4.47847 5.47656 4.14867V3.40277C5.47656 3.73257 5.74472 4.00073 6.07452 4.00073H15.7867C16.1165 4.00073 16.3815 3.73257 16.3815 3.40277Z" fill="#6E659C"/>
<path d="M15.7867 4.89459H6.07452C5.66458 4.89459 5.32861 4.55862 5.32861 4.14868V2.2531C5.32861 1.84317 5.66458 1.5072 6.07452 1.5072H15.7867C16.1966 1.5072 16.5326 1.84317 16.5326 2.2531V4.14868C16.5326 4.55862 16.1966 4.89459 15.7867 4.89459ZM6.07452 1.80618C5.82794 1.80618 5.62759 2.00653 5.62759 2.2531V4.14868C5.62759 4.39526 5.82794 4.59561 6.07452 4.59561H15.7867C16.0332 4.59561 16.2336 4.39526 16.2336 4.14868V2.2531C16.2336 2.00653 16.0332 1.80618 15.7867 1.80618H6.07452Z" fill="#1E2358"/>
<path d="M15.7928 11.6016H13.2099C12.8677 11.6016 12.5903 11.879 12.5903 12.2211V15.1246C12.5903 15.4667 12.8677 15.7441 13.2099 15.7441H15.7928C16.1349 15.7441 16.4123 15.4667 16.4123 15.1246V12.2211C16.4154 11.879 16.138 11.6016 15.7928 11.6016Z" fill="#8479B9"/>
<path d="M16.4154 14.4341V15.0321C16.4154 15.4266 16.0948 15.7472 15.7003 15.7472H13.3054C12.9109 15.7472 12.5903 15.4266 12.5903 15.0321V14.4341C12.5903 14.8287 12.9109 15.1492 13.3054 15.1492H15.7003C16.0948 15.1492 16.4154 14.8318 16.4154 14.4341Z" fill="#6E659C"/>
<path d="M15.7005 15.8951H13.3056C12.8278 15.8951 12.4395 15.5068 12.4395 15.029V12.3136C12.4395 11.8358 12.8278 11.4474 13.3056 11.4474H15.7005C16.1782 11.4474 16.5666 11.8358 16.5666 12.3136V15.029C16.5635 15.5068 16.1751 15.8951 15.7005 15.8951ZM13.3056 11.7495C12.9943 11.7495 12.7384 12.0023 12.7384 12.3166V15.0321C12.7384 15.3434 12.9912 15.5992 13.3056 15.5992H15.7005C16.0118 15.5992 16.2676 15.3465 16.2676 15.0321V12.3166C16.2676 12.0053 16.0149 11.7495 15.7005 11.7495H13.3056Z" fill="#1E2358"/>
<path d="M16.382 6.71618H12.5908C12.5076 6.71618 12.4429 6.64837 12.4429 6.56824C12.4429 6.48502 12.5107 6.42029 12.5908 6.42029H16.3851C16.4683 6.42029 16.533 6.4881 16.533 6.56824C16.533 6.64837 16.4652 6.71618 16.382 6.71618Z" fill="#1E2358"/>
<path d="M16.382 7.94293H12.5908C12.5076 7.94293 12.4429 7.87512 12.4429 7.79498C12.4429 7.71484 12.5107 7.64703 12.5908 7.64703H16.3851C16.4683 7.64703 16.533 7.71484 16.533 7.79498C16.533 7.87512 16.4652 7.94293 16.382 7.94293Z" fill="#1E2358"/>
<path d="M16.382 9.16967H12.5908C12.5076 9.16967 12.4429 9.10187 12.4429 9.02173C12.4429 8.94159 12.5107 8.87378 12.5908 8.87378H16.3851C16.4683 8.87378 16.533 8.94159 16.533 9.02173C16.533 9.10187 16.4652 9.16967 16.382 9.16967Z" fill="#1E2358"/>
<path d="M16.382 10.3964H12.5908C12.5076 10.3964 12.4429 10.3285 12.4429 10.2484C12.4429 10.1683 12.5107 10.1005 12.5908 10.1005H16.3851C16.4683 10.1005 16.533 10.1683 16.533 10.2484C16.533 10.3285 16.4652 10.3964 16.382 10.3964Z" fill="#1E2358"/>
<path d="M11.0618 13.4416H5.55078C5.46756 13.4416 5.40283 13.3738 5.40283 13.2937C5.40283 13.2136 5.47064 13.1458 5.55078 13.1458H11.0618C11.145 13.1458 11.2098 13.2136 11.2098 13.2937C11.2098 13.3738 11.145 13.4416 11.0618 13.4416Z" fill="#1E2358"/>
<path d="M11.0618 14.6684H5.55078C5.46756 14.6684 5.40283 14.6006 5.40283 14.5204C5.40283 14.4403 5.47064 14.3725 5.55078 14.3725H11.0618C11.145 14.3725 11.2098 14.4403 11.2098 14.5204C11.2098 14.6006 11.145 14.6684 11.0618 14.6684Z" fill="#1E2358"/>
<path d="M11.0618 15.8951H5.55078C5.46756 15.8951 5.40283 15.8273 5.40283 15.7472C5.40283 15.6671 5.47064 15.5992 5.55078 15.5992H11.0618C11.145 15.5992 11.2098 15.6671 11.2098 15.7472C11.2098 15.8273 11.145 15.8951 11.0618 15.8951Z" fill="#1E2358"/>
<path d="M15.1891 2.87573H6.67285C6.58963 2.87573 6.5249 2.80792 6.5249 2.72778C6.5249 2.64456 6.59271 2.57983 6.67285 2.57983H15.1891C15.2723 2.57983 15.337 2.64764 15.337 2.72778C15.337 2.80792 15.2723 2.87573 15.1891 2.87573Z" fill="#1E2358"/>
<path d="M13.5339 3.82812H6.67285C6.58963 3.82812 6.5249 3.76031 6.5249 3.68017C6.5249 3.59695 6.59271 3.53223 6.67285 3.53223H13.5339C13.6171 3.53223 13.6819 3.60004 13.6819 3.68017C13.6819 3.76031 13.6171 3.82812 13.5339 3.82812Z" fill="#1E2358"/>
<path d="M8.40178 10.9851L8.05657 11.2163L7.54492 10.455L7.97644 9.94946L8.46343 10.6738C8.53124 10.7786 8.50658 10.9173 8.40178 10.9851Z" fill="#FDCD56"/>
<path d="M8.05654 11.3673C8.00723 11.3673 7.961 11.3426 7.93326 11.3026L7.4216 10.5412C7.38462 10.4858 7.3877 10.4118 7.43085 10.3594L7.86236 9.8539C7.89319 9.81999 7.93942 9.79842 7.98565 9.8015C8.03189 9.80458 8.07504 9.82924 8.0997 9.86623L8.58669 10.5906C8.70073 10.7601 8.6545 10.9943 8.48498 11.1084L8.13976 11.3395C8.11511 11.358 8.08428 11.3673 8.05654 11.3673ZM7.73291 10.4673L8.0997 11.0097L8.32162 10.8618C8.35552 10.8402 8.36477 10.7909 8.34319 10.757L7.96716 10.196L7.73291 10.4673Z" fill="#000102"/>
<path d="M10.3556 8.70731C10.9565 8.70731 11.4436 8.22018 11.4436 7.61928C11.4436 7.01838 10.9565 6.53125 10.3556 6.53125C9.75471 6.53125 9.26758 7.01838 9.26758 7.61928C9.26758 8.22018 9.75471 8.70731 10.3556 8.70731Z" fill="#FDCD56"/>
<path d="M11.3108 7.10144C11.5975 7.6285 11.4033 8.2881 10.8762 8.57475C10.3492 8.8614 9.68957 8.66722 9.40292 8.14015C9.37518 8.08776 9.35052 8.03228 9.33203 7.9768C9.65258 8.38673 10.232 8.51927 10.7067 8.26344C11.1814 8.00454 11.3848 7.44665 11.2153 6.95349C11.2461 6.99664 11.28 7.04904 11.3108 7.10144Z" fill="#DAB149"/>
<path d="M10.3589 8.85527C9.92121 8.85527 9.49586 8.62102 9.27085 8.21108C8.94414 7.61313 9.16606 6.86106 9.7671 6.53434C10.3651 6.20763 11.1171 6.42955 11.4438 7.03058C11.601 7.32031 11.638 7.6532 11.5425 7.97067C11.45 8.28814 11.2373 8.54705 10.9476 8.70732C10.7596 8.80904 10.5561 8.85527 10.3589 8.85527ZM10.3527 6.68229C10.2017 6.68229 10.0476 6.71928 9.9058 6.79633C9.45271 7.04291 9.28318 7.61313 9.52976 8.06622C9.77634 8.51931 10.3466 8.68883 10.7996 8.44225C11.0185 8.32204 11.1788 8.12478 11.2497 7.88437C11.3205 7.64395 11.2928 7.39121 11.1726 7.17237C11.0092 6.86106 10.6856 6.68229 10.3527 6.68229Z" fill="#000102"/>
<path d="M7.59756 10.3902L7.52358 10.4303C7.18145 10.6152 6.75611 10.4888 6.56809 10.1498L6.17356 9.42547C5.98863 9.08335 6.115 8.658 6.45405 8.46998L6.52802 8.42991C6.87015 8.24498 7.2955 8.37135 7.48351 8.71039L7.87804 9.43472C8.06606 9.77993 7.93969 10.2053 7.59756 10.3902Z" fill="#8C9FFA"/>
<path d="M7.95204 9.57031L8.10307 9.84771C8.16472 9.96176 8.12465 10.1066 8.00752 10.1683L7.11367 10.6553C6.99963 10.7169 6.85476 10.6738 6.79312 10.5597L6.64209 10.2823C6.70373 10.3964 6.8486 10.4395 6.96264 10.3779L7.85649 9.89087C7.97054 9.82922 8.01369 9.68436 7.95204 9.57031Z" fill="#6E7FED"/>
<path d="M7.08218 10.7601C7.0267 10.7601 6.96814 10.7508 6.91266 10.7354C6.75855 10.6892 6.63526 10.5875 6.5582 10.4488L5.92018 9.27442C5.84312 9.13572 5.82771 8.97236 5.87086 8.82133C5.9171 8.66722 6.01881 8.54393 6.15751 8.46687L6.68149 8.18022C6.97122 8.02303 7.33493 8.13091 7.48904 8.42064L8.12706 9.59497C8.28426 9.8847 8.17638 10.2484 7.88665 10.4025L7.36267 10.6892C7.27945 10.7354 7.18082 10.7601 7.08218 10.7601ZM6.96814 8.40214C6.91882 8.40214 6.87259 8.41447 6.82636 8.43913L6.30238 8.72578C6.23149 8.76277 6.18217 8.82749 6.15751 8.90455C6.13594 8.98161 6.1421 9.06174 6.18217 9.13264L6.82019 10.307C6.85718 10.3779 6.92191 10.4272 6.99896 10.4518C7.07602 10.4734 7.15616 10.4672 7.22705 10.4272L7.75103 10.1405C7.8959 10.0604 7.94829 9.88162 7.87124 9.73676L7.23321 8.56242C7.17773 8.45762 7.07294 8.40214 6.96814 8.40214Z" fill="#000102"/>
<path d="M10.8426 9.73678C9.80387 9.48711 8.93467 9.71828 8.1148 9.87239C7.82507 9.33917 7.53534 8.80902 7.24561 8.27579C7.82198 7.67476 8.48775 7.06755 8.84221 6.06274C9.51105 7.28639 10.1768 8.51004 10.8426 9.73678Z" fill="#FDCD56"/>
<path d="M10.6917 9.45939L10.8427 9.7368C9.80397 9.48713 8.93477 9.7183 8.1149 9.87241L7.96387 9.59501C8.78374 9.4409 9.65294 9.20665 10.6917 9.45939Z" fill="#E3B84D"/>
<path d="M8.1149 10.0234C8.06251 10.0234 8.01011 9.99567 7.98237 9.94635L7.11318 8.34975C7.08235 8.29427 7.0916 8.22338 7.13783 8.17407C7.20256 8.10626 7.27037 8.03536 7.33818 7.96756C7.85908 7.43125 8.39847 6.87644 8.70361 6.01341C8.72211 5.95793 8.7745 5.91786 8.83307 5.91478C8.89471 5.9117 8.94711 5.93944 8.97485 5.99184L10.9721 9.66587C10.9999 9.71827 10.9968 9.77991 10.9598 9.82923C10.9228 9.87546 10.8643 9.89704 10.8057 9.88471C9.91802 9.67203 9.1567 9.82307 8.42313 9.96793C8.32758 9.98642 8.23511 10.0049 8.14265 10.0234C8.1334 10.0203 8.12415 10.0234 8.1149 10.0234ZM7.43065 8.30044L8.19504 9.70594C8.25052 9.69361 8.30909 9.68436 8.36765 9.67204C9.01492 9.54258 9.73925 9.39772 10.5622 9.52717L8.86697 6.41102C8.53101 7.16925 8.01627 7.6994 7.55394 8.17407C7.51079 8.21722 7.47072 8.26037 7.43065 8.30044Z" fill="#000102"/>
<path d="M11.2215 9.94637L11.1845 9.96795C11.015 10.0604 10.8023 9.99877 10.7099 9.82617L8.69715 6.12131C8.60469 5.95179 8.66633 5.73911 8.83894 5.64665L8.87592 5.62507C9.04545 5.5326 9.25812 5.59425 9.35059 5.76685L11.3633 9.47171C11.4558 9.64123 11.391 9.85391 11.2215 9.94637Z" fill="#8C9FFA"/>
<path d="M11.0275 10.1529C10.8425 10.1529 10.6638 10.0542 10.5682 9.88164L8.57401 6.21685C8.43531 5.96411 8.53086 5.64664 8.7836 5.51102C9.03635 5.37232 9.35382 5.46787 9.48944 5.72061L11.4836 9.3854C11.6223 9.63814 11.5268 9.95562 11.2741 10.0912C11.197 10.1313 11.1107 10.1529 11.0275 10.1529ZM9.03018 5.74219C8.99319 5.74219 8.95929 5.75144 8.92538 5.76993C8.81751 5.82849 8.77744 5.96411 8.836 6.07199L10.8302 9.73678C10.8888 9.84465 11.0244 9.88472 11.1323 9.82616C11.2401 9.7676 11.2802 9.63198 11.2217 9.5241L9.22745 5.85932C9.18738 5.78534 9.11032 5.74219 9.03018 5.74219Z" fill="#000102"/>
<path d="M8.53715 12.5909C8.3214 12.7081 8.05016 12.6187 7.94536 12.3968L7.12549 10.6491L7.67721 10.3502L8.69743 11.9899C8.82689 12.1995 8.75291 12.4738 8.53715 12.5909Z" fill="#FDCD56"/>
<path d="M8.33369 12.7944C8.27204 12.7944 8.21348 12.7851 8.15492 12.7666C8.00389 12.7173 7.8806 12.6064 7.81279 12.4646L6.99291 10.717C6.95901 10.6461 6.98675 10.5598 7.05764 10.5228L7.60936 10.2238C7.68025 10.1868 7.76655 10.2084 7.80662 10.2762L8.82685 11.916C8.91007 12.0516 8.93472 12.2149 8.89465 12.369C8.85459 12.5232 8.74979 12.6526 8.61109 12.7297C8.52479 12.7697 8.42924 12.7944 8.33369 12.7944ZM7.31963 10.7139L8.08094 12.3351C8.11485 12.406 8.17341 12.4584 8.24738 12.4831C8.32136 12.5077 8.39841 12.5016 8.46931 12.4615C8.53712 12.4245 8.58643 12.3629 8.60492 12.2858C8.62342 12.2118 8.61417 12.1317 8.57102 12.067L7.62477 10.5474L7.31963 10.7139Z" fill="#000102"/>
<path d="M6.66634 10.3317L6.52456 10.4087C6.24099 10.5629 5.88653 10.4581 5.73242 10.1745L5.69852 10.1128C5.5444 9.82928 5.6492 9.47482 5.93277 9.32071L6.07455 9.24365L6.66634 10.3317Z" fill="#FDCD56"/>
<path d="M6.25043 10.6276C5.98844 10.6276 5.73262 10.4858 5.597 10.2392L5.57234 10.1899C5.37816 9.82927 5.5107 9.37926 5.86824 9.18508L6.00077 9.1111C6.07166 9.07103 6.16413 9.09877 6.2042 9.16967L6.79599 10.2577C6.81448 10.2916 6.82065 10.3348 6.80832 10.3717C6.79599 10.4087 6.77133 10.4426 6.73743 10.4611L6.60489 10.5351C6.49085 10.5967 6.37064 10.6276 6.25043 10.6276ZM6.0131 9.44398C5.90522 9.50255 5.83125 9.59501 5.79735 9.70906C5.76344 9.8231 5.77577 9.94331 5.83433 10.0481L5.85899 10.0974C5.97611 10.3132 6.24427 10.3933 6.46003 10.2762L6.46311 10.2731L6.0131 9.44398Z" fill="#000102"/>
<path d="M15.3339 13.9656L14.4955 14.6375C14.249 14.8348 13.8853 14.6591 13.8853 14.3447V13.0009C13.8853 12.6865 14.249 12.5108 14.4955 12.7081L15.3339 13.38C15.5219 13.531 15.5219 13.8177 15.3339 13.9656Z" fill="#FDCD56"/>
<path d="M14.2608 14.8718C14.1837 14.8718 14.1067 14.8533 14.0327 14.8194C13.8509 14.73 13.7368 14.5512 13.7368 14.3478V13.0039C13.7368 12.8005 13.8509 12.6187 14.0327 12.5324C14.2146 12.443 14.4272 12.4676 14.5875 12.5971L15.4259 13.269C15.5492 13.3676 15.6231 13.5187 15.6231 13.679C15.6231 13.8392 15.5523 13.9872 15.4259 14.0889L14.5875 14.7608C14.492 14.8317 14.3748 14.8718 14.2608 14.8718ZM14.2608 12.7759C14.2269 12.7759 14.193 12.782 14.1622 12.7974C14.082 12.8375 14.0327 12.9115 14.0327 13.0009V14.3447C14.0327 14.4341 14.0789 14.5081 14.1622 14.5481C14.2423 14.5851 14.3317 14.5759 14.3995 14.5204L15.2379 13.8485C15.2903 13.8053 15.3211 13.7406 15.3211 13.6728C15.3211 13.605 15.2903 13.5403 15.2379 13.4971L14.3995 12.8252C14.3594 12.7913 14.3101 12.7759 14.2608 12.7759Z" fill="#1E2358"/>
</svg>
