<svg width="22" height="22" viewBox="0 0 22 22" fill="none" xmlns="http://www.w3.org/2000/svg">
<g clip-path="url(#clip0_19252_2381)">
<path d="M21.6777 2.9266H0.322266V1.19036C0.322266 0.710918 0.710918 0.322266 1.19036 0.322266H20.8096C21.2891 0.322266 21.6777 0.710918 21.6777 1.19036V2.9266Z" fill="#8479B9"/>
<path d="M20.8095 0.322266H19.5073C19.9868 0.322266 20.3754 0.710918 20.3754 1.19036V2.9266H21.6776V1.19036C21.6776 0.710918 21.2889 0.322266 20.8095 0.322266Z" fill="#6457A3"/>
<path d="M20.8096 21.6777H1.19036C0.710918 21.6777 0.322266 21.2891 0.322266 20.8096V2.92657H21.6777V20.8096C21.6777 21.2891 21.2891 21.6777 20.8096 21.6777Z" fill="#C3D3FA"/>
<path d="M20.3754 2.92657V20.8096C20.3754 21.2891 19.9868 21.6777 19.5073 21.6777H20.8095C21.2889 21.6777 21.6776 21.2891 21.6776 20.8096V2.92657H20.3754Z" fill="#9AB8F6"/>
<path d="M15.4348 10.3219H6.56494V7.85806C6.56494 7.5859 6.78554 7.3653 7.05771 7.3653H14.942C15.2142 7.3653 15.4348 7.5859 15.4348 7.85806V10.3219Z" fill="#FFE177"/>
<path d="M14.9422 7.3653H13.4639C13.736 7.3653 13.9566 7.5859 13.9566 7.85806V10.3219H15.4349V7.85806C15.4349 7.5859 15.2143 7.3653 14.9422 7.3653Z" fill="#FFD15B"/>
<path d="M14.6958 7.36527H7.3042L7.70089 4.9851C7.75632 4.65244 8.04412 4.40863 8.38138 4.40863H13.6185C13.9558 4.40863 14.2436 4.65244 14.299 4.9851L14.6958 7.36527Z" fill="#C4E2FF"/>
<path d="M14.2989 4.9851C14.2435 4.65244 13.9557 4.40863 13.6184 4.40863H12.1401C12.4774 4.40863 12.7652 4.65244 12.8206 4.9851L13.2173 7.36527H14.6956L14.2989 4.9851Z" fill="#B3DAFE"/>
<path d="M8.53591 11.8002H7.55038C7.27822 11.8002 7.05762 11.5796 7.05762 11.3074V10.3219H9.02868V11.3074C9.02872 11.5796 8.80808 11.8002 8.53591 11.8002Z" fill="#7A6D79"/>
<path d="M13.4635 11.8002H14.449C14.7212 11.8002 14.9418 11.5796 14.9418 11.3074V10.3219H12.9707V11.3074C12.9707 11.5796 13.1913 11.8002 13.4635 11.8002Z" fill="#7A6D79"/>
<path d="M17.1254 17.877H4.87445C4.395 17.877 4.00635 17.4883 4.00635 17.0089V14.0573C4.00635 13.5779 4.395 13.1892 4.87445 13.1892H17.1254C17.6049 13.1892 17.9935 13.5779 17.9935 14.0573V17.0089C17.9935 17.4883 17.6049 17.877 17.1254 17.877Z" fill="#96B2F6"/>
<path d="M17.1254 13.1891H15.8232C16.3027 13.1891 16.6913 13.5778 16.6913 14.0572V17.0088C16.6913 17.4883 16.3026 17.8769 15.8232 17.8769H17.1254C17.6049 17.8769 17.9935 17.4883 17.9935 17.0088V14.0572C17.9935 13.5778 17.6049 13.1891 17.1254 13.1891Z" fill="#C3D3FA"/>
<path d="M15.2775 18.9839L14.3061 19.2435C14.2323 19.2632 14.165 19.302 14.111 19.3561L13.4005 20.0676C13.136 20.3326 12.6826 20.1607 12.6601 19.7869L12.4894 16.9434C12.4723 16.6578 12.7886 16.4752 13.0274 16.6329L15.4046 18.2024C15.717 18.4087 15.6392 18.8873 15.2775 18.9839Z" fill="#FFE177"/>
<path d="M20.8098 0H1.19023C0.53393 0 0 0.53393 0 1.19023V16.5748C0 16.7527 0.144246 16.897 0.322266 16.897C0.500285 16.897 0.644531 16.7527 0.644531 16.5748V3.24887H21.3555V5.1352C21.3555 5.31317 21.4997 5.45746 21.6777 5.45746C21.8558 5.45746 22 5.31317 22 5.1352V1.19023C22 0.53393 21.4661 0 20.8098 0ZM0.644531 2.60434V1.19023C0.644531 0.889324 0.889324 0.644531 1.19023 0.644531H20.8098C21.1107 0.644531 21.3555 0.889324 21.3555 1.19023V2.60434H0.644531Z" fill="#1E2358"/>
<path d="M21.6777 6.31683C21.4997 6.31683 21.3555 6.46112 21.3555 6.6391V20.8098C21.3555 21.1107 21.1107 21.3555 20.8098 21.3555H1.19023C0.889324 21.3555 0.644531 21.1107 0.644531 20.8098V18.0787C0.644531 17.9007 0.500285 17.7564 0.322266 17.7564C0.144246 17.7564 0 17.9007 0 18.0787V20.8098C0 21.4661 0.53393 22 1.19023 22H20.8098C21.4661 22 22 21.4661 22 20.8098V6.6391C22 6.46112 21.8558 6.31683 21.6777 6.31683Z" fill="#1E2358"/>
<path d="M10.0146 9.16583H11.9858C12.1638 9.16583 12.308 9.02154 12.308 8.84357C12.308 8.66559 12.1638 8.5213 11.9858 8.5213H10.0146C9.83663 8.5213 9.69238 8.66559 9.69238 8.84357C9.69238 9.02154 9.83667 9.16583 10.0146 9.16583Z" fill="#1E2358"/>
<path d="M8.04346 9.16583H8.53622C8.71424 9.16583 8.85849 9.02154 8.85849 8.84357C8.85849 8.66559 8.71424 8.5213 8.53622 8.5213H8.04346C7.86544 8.5213 7.72119 8.66559 7.72119 8.84357C7.72119 9.02154 7.86548 9.16583 8.04346 9.16583Z" fill="#1E2358"/>
<path d="M13.4639 9.16583H13.9566C14.1347 9.16583 14.2789 9.02154 14.2789 8.84357C14.2789 8.66559 14.1347 8.5213 13.9566 8.5213H13.4639C13.2858 8.5213 13.1416 8.66559 13.1416 8.84357C13.1416 9.02154 13.2858 9.16583 13.4639 9.16583Z" fill="#1E2358"/>
<path d="M14.9689 7.04438L14.6169 4.93212C14.5352 4.44206 14.1153 4.08636 13.6185 4.08636H8.38136C7.88456 4.08636 7.46467 4.44206 7.38303 4.93212L7.03094 7.04438C6.59403 7.05873 6.24277 7.41769 6.24277 7.85803V9.99964H6.07227C5.89425 9.99964 5.75 10.1439 5.75 10.3219C5.75 10.4999 5.89425 10.6442 6.07227 10.6442H6.73553V11.3074C6.73553 11.7568 7.1012 12.1225 7.55061 12.1225H8.53614C8.98555 12.1225 9.35121 11.7568 9.35121 11.3074V10.6442H12.6488V11.3074C12.6488 11.7568 13.0145 12.1225 13.4639 12.1225H14.4494C14.8988 12.1225 15.2645 11.7568 15.2645 11.3074V10.6442H15.9277C16.1058 10.6442 16.25 10.4999 16.25 10.3219C16.25 10.1439 16.1058 9.99964 15.9277 9.99964H15.7572V7.85803C15.7571 7.41769 15.4059 7.05869 14.9689 7.04438ZM8.38136 4.73094H13.6185C13.7989 4.73094 13.9515 4.8601 13.9811 5.03808L14.3153 7.043H7.68458L8.01875 5.03808C8.0484 4.8601 8.20089 4.73094 8.38136 4.73094ZM6.88725 7.85803C6.88725 7.76402 6.96374 7.68753 7.05775 7.68753H14.9421C15.0361 7.68753 15.1126 7.76402 15.1126 7.85803V9.99964H6.88725V7.85803ZM8.70659 11.3074C8.70659 11.4015 8.63011 11.4779 8.53605 11.4779H7.55052C7.4565 11.4779 7.37998 11.4015 7.37998 11.3074V10.6442H8.70655V11.3074H8.70659ZM14.6198 11.3074C14.6198 11.4015 14.5433 11.4779 14.4493 11.4779H13.4637C13.3697 11.4779 13.2932 11.4015 13.2932 11.3074V10.6442H14.6198V11.3074H14.6198Z" fill="#1E2358"/>
<path d="M6.34785 14.1691H5.74268C5.56466 14.1691 5.42041 14.3134 5.42041 14.4913V16.5748C5.42041 16.6605 5.45457 16.7427 5.51529 16.8032C5.5757 16.8633 5.65747 16.8971 5.74268 16.8971H5.74409C5.74418 16.8971 6.30024 16.8946 6.45355 16.8946C6.94047 16.8946 7.33664 16.4984 7.33664 16.0115C7.33664 15.7536 7.22484 15.5219 7.04794 15.3603C7.11243 15.2449 7.14956 15.1121 7.14956 14.9708C7.14956 14.5287 6.78995 14.1691 6.34785 14.1691ZM6.34785 14.8136C6.43452 14.8136 6.50498 14.8841 6.50498 14.9707C6.50498 15.0574 6.43447 15.1279 6.34785 15.1279C6.30423 15.1279 6.06494 15.1284 6.06494 15.1284V14.8136H6.34785ZM6.45355 16.25C6.38068 16.25 6.21701 16.2506 6.06494 16.2512V15.7732C6.08827 15.7731 6.45355 15.773 6.45355 15.773C6.58512 15.773 6.69211 15.88 6.69211 16.0115C6.69211 16.1431 6.58512 16.25 6.45355 16.25Z" fill="#1E2358"/>
<path d="M9.31464 14.1691C8.56256 14.1691 7.95068 14.7809 7.95068 15.5331C7.95068 16.2852 8.56256 16.8971 9.31464 16.8971C10.0668 16.8971 10.6786 16.2852 10.6786 15.5331C10.6786 14.7809 10.0668 14.1691 9.31464 14.1691ZM9.31464 16.2525C8.91795 16.2525 8.59521 15.9298 8.59521 15.5331C8.59521 15.1363 8.91795 14.8136 9.31464 14.8136C9.71133 14.8136 10.0341 15.1363 10.0341 15.5331C10.0341 15.9298 9.71137 16.2525 9.31464 16.2525Z" fill="#1E2358"/>
<path d="M15.0625 14.1691C14.8845 14.1691 14.7402 14.3134 14.7402 14.4913V16.5748C14.7402 16.7528 14.8845 16.8971 15.0625 16.8971C15.2405 16.8971 15.3848 16.7528 15.3848 16.5748V16.1809L16.0335 16.8067C16.096 16.867 16.1766 16.8971 16.2572 16.8971C16.3416 16.8971 16.4259 16.8641 16.4891 16.7986C16.6127 16.6705 16.609 16.4665 16.4809 16.3429L15.5992 15.4922L16.4013 14.7549C16.5324 14.6345 16.541 14.4306 16.4205 14.2996C16.3 14.1685 16.0962 14.1599 15.9651 14.2804L15.3847 14.8139V14.4913C15.3848 14.3134 15.2405 14.1691 15.0625 14.1691Z" fill="#1E2358"/>
<path d="M3.68408 14.0577V17.0092C3.68408 17.6655 4.21823 18.1994 4.87475 18.1994H12.242L12.3385 19.8063C12.3566 20.1076 12.5431 20.3612 12.8253 20.4682C12.9146 20.5021 13.0065 20.5186 13.097 20.5186C13.2928 20.5186 13.4828 20.4414 13.6286 20.2954L14.339 19.584C14.3529 19.5701 14.3703 19.56 14.3893 19.5549L15.3606 19.2954H15.3607C15.6523 19.2175 15.8635 18.984 15.9119 18.6861C15.94 18.5133 15.9089 18.3439 15.8291 18.1995H17.1251C17.7816 18.1995 18.3158 17.6656 18.3158 17.0093V14.0577C18.3158 13.4012 17.7816 12.8671 17.1251 12.8671H11.7519C11.5739 12.8671 11.4296 13.0114 11.4296 13.1893C11.4296 13.3673 11.5739 13.5116 11.7519 13.5116H17.1251C17.4263 13.5116 17.6713 13.7566 17.6713 14.0577V17.0093C17.6713 17.3101 17.4263 17.555 17.1251 17.555H15.0088L13.5548 16.595C13.8651 16.3447 14.0643 15.9619 14.0643 15.5331C14.0643 14.781 13.4525 14.1691 12.7003 14.1691C11.9482 14.1691 11.3363 14.781 11.3363 15.5331C11.3363 16.1037 11.6886 16.5933 12.187 16.7966C12.171 16.8446 12.1641 16.8992 12.1678 16.9628L12.2034 17.555H4.87475C4.57358 17.555 4.32861 17.3102 4.32861 17.0093V14.0577C4.32861 13.7566 4.57358 13.5116 4.87475 13.5116H10.248C10.426 13.5116 10.5703 13.3673 10.5703 13.1893C10.5703 13.0114 10.426 12.8671 10.248 12.8671H4.87475C4.21823 12.867 3.68408 13.4012 3.68408 14.0577ZM15.2758 18.5826C15.2715 18.6093 15.2551 18.6564 15.1943 18.6727L14.223 18.9322C14.0946 18.9665 13.977 19.0344 13.883 19.1285L13.1727 19.84C13.1283 19.8845 13.0792 19.8751 13.0539 19.8655C13.0286 19.8559 12.9857 19.8305 12.9819 19.7677L12.8112 16.9242C12.8108 16.9181 12.8103 16.9088 12.8237 16.9011C12.8288 16.8981 12.8331 16.897 12.8368 16.897C12.8426 16.897 12.8467 16.8998 12.8499 16.9018L15.2271 18.4714C15.2796 18.5061 15.2801 18.556 15.2758 18.5826ZM12.7003 14.8136C13.097 14.8136 13.4198 15.1364 13.4198 15.5331C13.4198 15.9298 13.097 16.2526 12.7003 16.2526C12.3036 16.2526 11.9808 15.9298 11.9808 15.5331C11.9808 15.1364 12.3036 14.8136 12.7003 14.8136Z" fill="#1E2358"/>
<path d="M2.02539 1.94672C2.20337 1.94672 2.34766 1.80243 2.34766 1.62445C2.34766 1.44647 2.20337 1.30219 2.02539 1.30219C1.84741 1.30219 1.70312 1.44647 1.70312 1.62445C1.70312 1.80243 1.84741 1.94672 2.02539 1.94672Z" fill="#1E2358"/>
<path d="M3.3457 1.94672C3.52369 1.94672 3.66797 1.80243 3.66797 1.62445C3.66797 1.44647 3.52369 1.30219 3.3457 1.30219C3.16772 1.30219 3.02344 1.44647 3.02344 1.62445C3.02344 1.80243 3.16772 1.94672 3.3457 1.94672Z" fill="#1E2358"/>
<path d="M4.66553 1.94672C4.84351 1.94672 4.98779 1.80243 4.98779 1.62445C4.98779 1.44647 4.84351 1.30219 4.66553 1.30219C4.48754 1.30219 4.34326 1.44647 4.34326 1.62445C4.34326 1.80243 4.48754 1.94672 4.66553 1.94672Z" fill="#1E2358"/>
</g>
<defs>
<clipPath id="clip0_19252_2381">
<rect width="22" height="22" fill="white"/>
</clipPath>
</defs>
</svg>
