<svg width="24" height="24" viewBox="0 0 24 24" fill="none" xmlns="http://www.w3.org/2000/svg">
<g clip-path="url(#clip0_19252_2366)">
<path d="M22.7493 0.60968H5.71074C5.02106 0.60968 4.45997 1.17073 4.45997 1.8604V4.30999C4.35755 4.24221 4.24195 4.18507 4.11169 4.14691C3.87792 4.07838 3.50686 4.04998 3.06755 4.30352C3.0675 4.30357 3.06741 4.30362 3.06731 4.30366C2.97483 4.3571 2.87944 4.41148 2.78236 4.46674C1.91095 4.96315 0.923298 5.52579 0.510141 6.29524C-0.0877492 7.40787 -0.167812 9.23899 0.310829 10.8516C1.18955 13.815 2.72386 16.3925 4.87144 18.5129C6.99178 20.6605 9.56925 22.1948 12.5326 23.0735C13.2476 23.2857 13.9912 23.3903 14.6964 23.3903C15.6061 23.3903 16.452 23.2161 17.089 22.8743C17.8603 22.4601 18.4234 21.4697 18.9202 20.5959C18.9742 20.5008 19.0274 20.4073 19.0793 20.3172C19.3337 19.8778 19.3057 19.5067 19.2373 19.2728C19.089 18.7653 18.6546 18.4762 18.4092 18.3493L14.4145 16.2769C13.8926 16.004 13.3548 16.0912 13.1067 16.4889L12.171 17.9868C12.0698 18.1491 11.9336 18.2793 11.6265 18.1346C10.3093 17.5107 8.66063 16.0025 8.00648 15.3766C7.96519 15.3334 7.91981 15.2856 7.87134 15.2342H22.7493C23.439 15.2342 24 14.6731 24 13.9834V1.8604C24 1.17073 23.439 0.60968 22.7493 0.60968ZM16.3336 7.77949L23.2469 1.80654C23.2488 1.82426 23.2499 1.84221 23.2499 1.8604V13.7556L16.3336 7.77949ZM5.25009 11.7587C5.10511 11.4508 5.23533 11.3147 5.39784 11.2134L6.89531 10.278C7.29324 10.0297 7.38052 9.49188 7.10808 8.97115L5.21011 5.31265V1.8604C5.21011 1.84245 5.21114 1.82468 5.21302 1.8072L12.1263 7.77949L6.0345 13.0421C5.72302 12.6088 5.44383 12.1678 5.25009 11.7587ZM5.84236 1.35977H22.6167L14.23 8.60571L5.84236 1.35977ZM3.4425 4.95321C3.61322 4.85473 3.76317 4.82651 3.90084 4.86677C4.07325 4.91726 4.24828 5.08681 4.36927 5.32066L6.44283 9.31765C6.5235 9.47182 6.53208 9.62041 6.49805 9.6416L5.6917 10.1453L3.09905 5.14971C3.11728 5.13931 3.13556 5.1289 3.1537 5.11859C3.25209 5.06248 3.34875 5.00745 3.4425 4.95321ZM14.0679 16.9422L18.0642 19.0154C18.2977 19.1361 18.467 19.311 18.5174 19.4832C18.5576 19.6209 18.5291 19.7707 18.4299 19.9421C18.3769 20.034 18.323 20.1288 18.2681 20.2253C18.257 20.2448 18.2458 20.2645 18.2347 20.2841L13.2392 17.6927L13.743 16.8862C13.764 16.8524 13.9126 16.861 14.0679 16.9422ZM11.3062 18.813C11.9033 19.0941 12.4645 18.9336 12.8073 18.384L12.8405 18.3309L17.8556 20.9324C17.5153 21.4873 17.1433 21.9939 16.7343 22.2135C15.7837 22.7237 14.181 22.7805 12.746 22.3545C9.9046 21.5119 7.43428 20.0416 5.40361 17.9844C5.40248 17.9832 5.40131 17.9821 5.40019 17.9809C3.34289 15.9502 1.87256 13.4799 1.02999 10.6384C0.603891 9.2029 0.660516 7.60024 1.17099 6.65032C1.39041 6.24166 1.89675 5.86966 2.451 5.52931L5.05359 10.544L5.00072 10.5771C4.45078 10.92 4.29038 11.4813 4.57191 12.0791C5.2447 13.4993 6.82303 15.2252 7.47042 15.9013C7.47417 15.9053 7.47802 15.9091 7.48195 15.9129C8.15831 16.5605 9.88509 18.1399 11.3062 18.813ZM7.19049 14.4842C6.96539 14.2267 6.72488 13.941 6.48802 13.6416L12.7 8.27515L13.9848 9.3851C14.0552 9.44595 14.1426 9.47637 14.23 9.47637C14.3174 9.47637 14.4047 9.44595 14.4752 9.3851L15.7599 8.2751L22.9133 14.456C22.8618 14.474 22.8068 14.4842 22.7493 14.4842H7.19049Z" fill="#1E2358"/>
<path d="M6.89547 10.2779L5.398 11.2133C5.23548 11.3146 5.10527 11.4507 5.25025 11.7586C5.44403 12.1677 5.72317 12.6088 6.03466 13.0421L12.1264 7.77949L5.21317 1.80719C5.2113 1.82467 5.21027 1.84239 5.21027 1.86039V5.3126L7.10823 8.9711C7.38063 9.49178 7.29339 10.0296 6.89547 10.2779Z" fill="#C3D3FA"/>
<path d="M18.2682 20.2253C18.323 20.1288 18.3769 20.034 18.43 19.942C18.5291 19.7707 18.5576 19.6208 18.5174 19.4832C18.4671 19.311 18.2977 19.1361 18.0643 19.0154L14.068 16.9421C13.9127 16.861 13.7641 16.8524 13.743 16.8862L13.2393 17.6926L18.2347 20.284C18.2459 20.2644 18.2571 20.2448 18.2682 20.2253Z" fill="#FCC800"/>
<path d="M16.3335 7.77947L23.2499 13.7556V1.86038C23.2499 1.84214 23.2487 1.82419 23.2469 1.80652L16.3335 7.77947Z" fill="#C3D3FA"/>
<path d="M6.49821 9.64165C6.5322 9.62046 6.52367 9.47186 6.443 9.31769L4.36939 5.32066C4.2484 5.0868 4.07337 4.91726 3.90096 4.86677C3.76329 4.82651 3.61334 4.85472 3.44262 4.95321C3.34887 5.0074 3.25221 5.06247 3.15378 5.11854C3.13564 5.1289 3.11736 5.13926 3.09912 5.14966L5.69182 10.1453L6.49821 9.64165Z" fill="#FCC800"/>
<path d="M14.475 9.38507C14.4046 9.44587 14.3172 9.47629 14.2298 9.47629C14.1424 9.47629 14.0551 9.44587 13.9847 9.38507L12.6998 8.27512L6.48779 13.6416C6.72465 13.9409 6.96521 14.2266 7.19031 14.4841H22.7491C22.8066 14.4841 22.8617 14.4739 22.9131 14.456L15.7598 8.27502L14.475 9.38507Z" fill="#82A8F6"/>
<path d="M7.47012 15.9013C6.82273 15.2252 5.24441 13.4993 4.57161 12.079C4.29008 11.4811 4.45053 10.92 5.00042 10.577L5.0533 10.544L2.45075 5.52924C1.8965 5.8696 1.39016 6.24164 1.17073 6.65025C0.660265 7.60017 0.60364 9.20283 1.02973 10.6384C1.87231 13.4798 3.34264 15.9501 5.39994 17.9809L5.40336 17.9843C7.43403 20.0415 9.90434 21.5119 12.7458 22.3545C14.1807 22.7804 15.7834 22.7236 16.734 22.2135C17.143 21.9938 17.515 21.4872 17.8553 20.9324L12.8403 18.3308L12.8071 18.384C12.4643 18.9336 11.9031 19.0941 11.306 18.8129C9.88489 18.1398 8.15811 16.5605 7.48166 15.9127C7.47772 15.909 7.47387 15.9052 7.47012 15.9013Z" fill="#C3D3FA"/>
<path d="M22.6166 1.35974H5.84229L14.2299 8.60563L22.6166 1.35974Z" fill="#9AB8F6"/>
</g>
<defs>
<clipPath id="clip0_19252_2366">
<rect width="24" height="24" fill="white"/>
</clipPath>
</defs>
</svg>
