<svg width="34" height="21" viewBox="0 0 34 21" fill="none" xmlns="http://www.w3.org/2000/svg">
<path d="M18.766 7.32675L13.8597 8.8779L12.4729 1.71515H14.732L18.766 7.32675Z" fill="#9AB8F6"/>
<path d="M29.1235 8.27409C28.5008 6.43959 26.9084 4.85398 23.196 5.92634L9.08434 10.3877L6.28287 7.02313H4.0238L7.18747 14.5897C7.62457 15.5668 8.7305 16.0621 9.75688 15.7401L28.2647 9.9354C28.965 9.71404 29.3584 8.96595 29.1235 8.27409Z" fill="#9AB8F6"/>
<path d="M8.26011 14.2536L5.23701 7.02313H4.0238L7.18747 14.5897C7.62457 15.5668 8.7305 16.0621 9.75688 15.7401L10.8223 15.406C9.79793 15.7233 8.69618 15.2285 8.26011 14.2536Z" fill="#E8E6F4"/>
<path d="M9.11864 16.184C8.16846 16.184 7.27395 15.6346 6.86932 14.73L3.70229 7.15575C3.65764 7.04905 3.6697 6.92736 3.73419 6.83126C3.79867 6.73527 3.90734 6.67754 4.02354 6.67754H6.2826C6.38629 6.67754 6.48463 6.72351 6.55074 6.80279L9.20249 9.9876L23.0903 5.59688C24.8819 5.07926 26.356 5.11625 27.4803 5.70428C28.3984 6.18446 29.0622 7.01194 29.4531 8.16358C29.5952 8.58222 29.5621 9.03116 29.36 9.42791C29.1547 9.83077 28.8032 10.128 28.37 10.2648L9.86145 16.0698C9.61513 16.1471 9.36508 16.184 9.11864 16.184ZM4.54508 7.36882L7.50868 14.457C7.87076 15.2664 8.79356 15.6795 9.65201 15.4105L28.1599 9.60572C28.4129 9.52574 28.6189 9.35151 28.7392 9.11552C28.8563 8.88551 28.8758 8.62589 28.7938 8.38448C28.0317 6.1394 26.1811 5.42392 23.293 6.25809L9.18985 10.7171C9.05451 10.7599 8.90675 10.7167 8.81629 10.608L6.1192 7.36882H4.54508Z" fill="#1E2358"/>
<path d="M23.5547 9.59859L20.2938 10.6213L20.5033 11.2806L23.7641 10.2579L23.5547 9.59859Z" fill="#1E2358"/>
<path d="M13.8597 9.2236C13.7978 9.2236 13.7363 9.20712 13.682 9.17509C13.5965 9.12462 13.5369 9.04027 13.5181 8.94324L12.1313 1.7806C12.1117 1.67931 12.1386 1.57468 12.2047 1.49506C12.2708 1.41555 12.3691 1.36957 12.4729 1.36957H14.732C14.8444 1.36957 14.9498 1.4235 15.0151 1.5143L19.0491 7.12591C19.1137 7.2159 19.1312 7.33113 19.0961 7.436C19.061 7.54086 18.9775 7.62279 18.8715 7.65632L13.9652 9.20735C13.9307 9.21819 13.8952 9.2236 13.8597 9.2236ZM12.8941 2.06096L14.1274 8.43057L18.2052 7.14135L14.5529 2.06096H12.8941Z" fill="#1E2358"/>
<path d="M14.5517 3.30366L13.8684 3.43427L14.0595 4.42123L14.7428 4.29063L14.5517 3.30366Z" fill="#1E2358"/>
<path d="M14.9118 5.16346L14.2285 5.29407L14.5886 7.15405L15.2719 7.02345L14.9118 5.16346Z" fill="#1E2358"/>
<path d="M27.181 5.94336L24.0766 6.9672C23.5699 7.13752 23.2963 7.68199 23.4635 8.18671C23.6319 8.69477 24.183 8.97087 24.6943 8.80321L28.7921 7.50845C28.4403 6.85635 27.9245 6.29067 27.181 5.94336Z" fill="#FCC800"/>
<path d="M24.3883 9.19858C24.1847 9.19858 23.9815 9.1511 23.7937 9.05696C23.4782 8.89886 23.2435 8.62818 23.133 8.29469C22.907 7.6124 23.2803 6.86984 23.965 6.6396L27.0714 5.61519C27.1559 5.5873 27.2483 5.59271 27.329 5.6304C28.0785 5.98059 28.674 6.55744 29.0987 7.34506C29.1476 7.43563 29.1534 7.54314 29.1145 7.63833C29.0757 7.73362 28.9961 7.80668 28.8975 7.8378L24.7998 9.13255C24.6655 9.17668 24.5268 9.19858 24.3883 9.19858ZM27.1544 6.31638L24.1862 7.29528C23.8638 7.40371 23.6869 7.7554 23.7941 8.07863C23.8464 8.23662 23.9576 8.36475 24.107 8.43966C24.2565 8.51456 24.4263 8.527 24.5853 8.47492L28.2655 7.3121C27.9661 6.87998 27.594 6.54627 27.1544 6.31638Z" fill="#1E2358"/>
<path d="M21.3368 9.18256C21.6881 9.18256 21.9729 8.89958 21.9729 8.55051C21.9729 8.20144 21.6881 7.91846 21.3368 7.91846C20.9855 7.91846 20.7007 8.20144 20.7007 8.55051C20.7007 8.89958 20.9855 9.18256 21.3368 9.18256Z" fill="#9AB8F6"/>
<path d="M17.9481 10.2617C18.2994 10.2617 18.5842 9.97874 18.5842 9.62967C18.5842 9.2806 18.2994 8.99762 17.9481 8.99762C17.5968 8.99762 17.312 9.2806 17.312 9.62967C17.312 9.97874 17.5968 10.2617 17.9481 10.2617Z" fill="#9AB8F6"/>
<path d="M14.5595 11.3408C14.9108 11.3408 15.1956 11.0578 15.1956 10.7087C15.1956 10.3596 14.9108 10.0767 14.5595 10.0767C14.2081 10.0767 13.9233 10.3596 13.9233 10.7087C13.9233 11.0578 14.2081 11.3408 14.5595 11.3408Z" fill="#9AB8F6"/>
<path d="M11.1708 12.4199C11.5221 12.4199 11.8069 12.1369 11.8069 11.7879C11.8069 11.4388 11.5221 11.1558 11.1708 11.1558C10.8195 11.1558 10.5347 11.4388 10.5347 11.7879C10.5347 12.1369 10.8195 12.4199 11.1708 12.4199Z" fill="#9AB8F6"/>
<path d="M21.3368 9.52825C20.7942 9.52825 20.3528 9.08956 20.3528 8.5505C20.3528 8.01145 20.7943 7.57275 21.3368 7.57275C21.8794 7.57275 22.3209 8.01133 22.3209 8.5505C22.3209 9.08968 21.8795 9.52825 21.3368 9.52825ZM21.3368 8.26415C21.1778 8.26415 21.0486 8.39264 21.0486 8.5505C21.0486 8.70849 21.1779 8.83686 21.3368 8.83686C21.4957 8.83686 21.625 8.70837 21.625 8.5505C21.625 8.39264 21.4957 8.26415 21.3368 8.26415Z" fill="#1E2358"/>
<path d="M17.9482 10.6074C17.4055 10.6074 16.9641 10.1687 16.9641 9.62967C16.9641 9.09061 17.4056 8.65192 17.9482 8.65192C18.4907 8.65192 18.9322 9.09061 18.9322 9.62967C18.9322 10.1687 18.4908 10.6074 17.9482 10.6074ZM17.9482 9.3432C17.7892 9.3432 17.66 9.47168 17.66 9.62955C17.66 9.78742 17.7893 9.9159 17.9482 9.9159C18.107 9.9159 18.2363 9.78742 18.2363 9.62955C18.2363 9.47168 18.107 9.3432 17.9482 9.3432Z" fill="#1E2358"/>
<path d="M14.5595 11.6866C14.0168 11.6866 13.5754 11.2479 13.5754 10.7088C13.5754 10.1698 14.017 9.73108 14.5595 9.73108C15.102 9.73108 15.5435 10.1698 15.5435 10.7088C15.5435 11.2479 15.1021 11.6866 14.5595 11.6866ZM14.5595 10.4224C14.4005 10.4224 14.2713 10.5508 14.2713 10.7087C14.2713 10.8666 14.4006 10.9951 14.5595 10.9951C14.7184 10.9951 14.8477 10.8666 14.8477 10.7087C14.8477 10.5508 14.7184 10.4224 14.5595 10.4224Z" fill="#1E2358"/>
<path d="M11.1709 12.7656C10.6283 12.7656 10.1869 12.327 10.1869 11.7879C10.1869 11.2487 10.6284 10.8101 11.1709 10.8101C11.7135 10.8101 12.155 11.2488 12.155 11.7879C12.155 12.3269 11.7135 12.7656 11.1709 12.7656ZM11.1709 11.5015C11.0119 11.5015 10.8827 11.63 10.8827 11.7879C10.8827 11.9457 11.012 12.0742 11.1709 12.0742C11.3298 12.0742 11.4591 11.9457 11.4591 11.7879C11.459 11.63 11.3298 11.5015 11.1709 11.5015Z" fill="#1E2358"/>
<path d="M18.7658 11.1655L14.7321 12.4838V19.0257H16.9911L19.6649 12.1035C19.8828 11.5392 19.3435 10.9768 18.7658 11.1655Z" fill="#9AB8F6"/>
<path d="M16.9911 19.3712H14.7321C14.5399 19.3712 14.3842 19.2165 14.3842 19.0255V12.4838C14.3842 12.3344 14.4806 12.202 14.6233 12.1554L18.657 10.8371C19.053 10.7078 19.4779 10.8137 19.7656 11.1136C20.0532 11.4137 20.139 11.8404 19.9897 12.2273L17.3159 19.1494C17.2644 19.2831 17.1352 19.3712 16.9911 19.3712ZM15.08 18.6798H16.752L19.3401 11.9795C19.3931 11.8423 19.3639 11.6968 19.2618 11.5905C19.1597 11.484 19.0149 11.4479 18.8746 11.4938L15.08 12.7339V18.6798Z" fill="#1E2358"/>
<path d="M16.6994 14.9525L15.7977 17.2875L16.4474 17.5352L17.349 15.2001L16.6994 14.9525Z" fill="#1E2358"/>
<path d="M17.5336 12.793L17.106 13.9005L17.7556 14.1482L18.1833 13.0406L17.5336 12.793Z" fill="#1E2358"/>
</svg>
