<svg width="22" height="22" viewBox="0 0 22 22" fill="none" xmlns="http://www.w3.org/2000/svg">
<g clip-path="url(#clip0_19252_2318)">
<path d="M19.9001 16.0265L3.86789 19.085C3.33375 19.1849 2.81972 18.8329 2.71977 18.2987L0.339225 5.5742C0.23928 5.04005 0.591322 4.52602 1.12546 4.42608L6.59764 3.40235C6.90697 3.34447 7.22601 3.42757 7.46784 3.62901L8.48585 4.47699C8.72768 4.67843 9.04672 4.76153 9.35605 4.70365L17.4861 3.12353C18.0202 3.02358 18.5343 3.37562 18.6342 3.90977L20.6862 14.8784C20.7862 15.4125 20.4342 15.9265 19.9001 16.0265Z" fill="#C3D3FA"/>
<path d="M20.6861 14.8782L18.634 3.90958C18.5341 3.3754 18.0201 3.0234 17.4859 3.12335L14.8937 3.62719C15.3733 3.60859 15.8068 3.94366 15.8978 4.42955L17.7954 14.8783C17.8954 15.4124 17.5433 15.9264 17.0092 16.0264L2.90625 18.7168C3.12479 19.001 3.4911 19.1553 3.86763 19.0848L19.8998 16.0263C20.434 15.9264 20.786 15.4124 20.6861 14.8782Z" fill="#9AB8F6"/>
<path d="M4.96585 4.06688L5.74952 4.99681C5.99134 5.19825 6.31039 5.28135 6.61972 5.22347L9.20975 4.72005C8.94828 4.73195 8.68961 4.64666 8.48581 4.47689L7.46779 3.6289C7.22597 3.42746 6.90692 3.34436 6.59759 3.40224L4.34375 3.82389C4.56977 3.83545 4.78856 3.91924 4.96585 4.06688Z" fill="#FFC344"/>
<path d="M3.12452 20.9236C2.27559 20.9236 1.5874 20.2354 1.5874 19.3865V9.33383C1.5874 8.48489 2.27559 7.79675 3.12447 7.79675H17.9814C18.8303 7.79675 19.5185 8.48494 19.5185 9.33387V19.3865C19.5185 20.2355 18.8303 20.9236 17.9814 20.9236H3.12452Z" fill="#EAF9FA"/>
<path d="M17.9814 7.79675H14.3696C15.2186 7.79675 15.9067 8.48494 15.9067 9.33387V19.3865C15.9067 20.2354 15.2186 20.9236 14.3697 20.9236H17.9814C18.8303 20.9236 19.5185 20.2354 19.5185 19.3865V9.33387C19.5185 8.48494 18.8303 7.79675 17.9814 7.79675Z" fill="#9AB8F6"/>
<path d="M18.1767 9.56478V19.1556C18.1767 19.3728 18.0006 19.5489 17.7834 19.5489H3.32253C3.10528 19.5489 2.9292 19.3728 2.9292 19.1556V9.56478C2.9292 9.34753 3.10528 9.17145 3.32253 9.17145H17.7834C18.0006 9.17149 18.1767 9.34753 18.1767 9.56478Z" fill="#9AB8F6"/>
<path d="M17.7832 9.17145H15.3555C15.6599 9.17145 15.9066 9.41822 15.9066 9.72261V18.9978C15.9066 19.3022 15.6599 19.549 15.3555 19.549H17.7832C18.0005 19.549 18.1766 19.3729 18.1766 19.1556V9.56483C18.1766 9.34758 18.0005 9.17145 17.7832 9.17145Z" fill="#8BA7E2"/>
<path d="M18.1766 14.7667V19.1555C18.1766 19.3729 18.0004 19.5491 17.7834 19.5491H3.32236C3.10494 19.5491 2.9292 19.3729 2.9292 19.1555V18.2025L10.0921 14.3525C10.3662 14.2047 10.7048 14.2519 10.9287 14.4694L12.6315 16.1224L15.8786 13.619C15.8877 13.6121 15.8971 13.6053 15.9066 13.5988C16.1657 13.4175 16.5154 13.4282 16.7642 13.6285L18.1766 14.7667Z" fill="#8C9FFA"/>
<path d="M18.1768 14.7667V19.1555C18.1768 19.373 18.0006 19.5491 17.7836 19.5491H15.3555C15.6601 19.5491 15.9068 19.3021 15.9068 18.9978V13.5988C16.1659 13.4175 16.5156 13.4282 16.7644 13.6285L18.1768 14.7667Z" fill="#7B8DE3"/>
<path d="M8.1762 15.3979L7.41419 14.2529H7.6256C7.82248 14.2529 7.94 14.0336 7.8309 13.8696L6.74792 12.2424C6.64475 12.0873 6.41693 12.0873 6.31376 12.2424L5.23078 13.8696C5.12168 14.0336 5.2392 14.2529 5.43608 14.2529H5.64749L4.88548 15.3979C4.77638 15.5618 4.8939 15.7812 5.09079 15.7812H5.58059L4.88548 16.8257C4.77638 16.9896 4.8939 17.209 5.09079 17.209H7.97077C8.16765 17.209 8.28517 16.9896 8.17607 16.8257L7.48097 15.7812H7.97077C8.16778 15.7812 8.28526 15.5618 8.1762 15.3979Z" fill="#FFD15B"/>
<path d="M7.48131 15.7812H7.97111C8.168 15.7812 8.28552 15.5619 8.17642 15.3979L7.41445 14.253H7.62586C7.82274 14.253 7.94026 14.0336 7.83116 13.8697L6.74818 12.2424C6.64501 12.0874 6.41723 12.0874 6.31402 12.2424L5.91699 12.839C6.02321 12.8033 6.14859 12.8372 6.21786 12.9413L6.83068 13.8697C6.93978 14.0337 6.82226 14.253 6.62537 14.253H6.41397L7.17598 15.398C7.28507 15.5619 7.16755 15.7813 6.97067 15.7813H6.48087L7.17598 16.8257C7.28507 16.9897 7.16755 17.209 6.97067 17.209H7.97111C8.168 17.209 8.28552 16.9897 8.17642 16.8257L7.48131 15.7812Z" fill="#FFC344"/>
<path d="M12.7916 12.8249C13.2768 12.8249 13.6701 12.4316 13.6701 11.9464C13.6701 11.4612 13.2768 11.0679 12.7916 11.0679C12.3064 11.0679 11.9131 11.4612 11.9131 11.9464C11.9131 12.4316 12.3064 12.8249 12.7916 12.8249Z" fill="#FFD15B"/>
<path d="M12.7917 11.0679C12.6397 11.0679 12.4968 11.1066 12.3721 11.1745C12.6454 11.3234 12.8309 11.6132 12.8309 11.9464C12.8309 12.2796 12.6454 12.5695 12.3721 12.7184C12.4968 12.7863 12.6397 12.8249 12.7917 12.8249C13.2769 12.8249 13.6702 12.4316 13.6702 11.9464C13.6702 11.4613 13.2769 11.0679 12.7917 11.0679Z" fill="#FFC344"/>
<path d="M18.4989 9.56478C18.4989 9.17016 18.1779 8.84918 17.7833 8.84918H3.32249C2.92791 8.84918 2.60693 9.1702 2.60693 9.56478V19.1555C2.60693 19.3282 2.66838 19.4867 2.77056 19.6105C2.90187 19.7697 3.10051 19.8714 3.32245 19.8714H6.53095C6.70897 19.8714 6.85322 19.7271 6.85322 19.5491C6.85322 19.549 6.85322 19.549 6.85322 19.549C6.85322 19.549 6.85322 19.549 6.85322 19.5489V17.5312H7.97096C8.18103 17.5312 8.37315 17.4162 8.4724 17.231C8.57166 17.0459 8.561 16.8221 8.44456 16.6471L8.07627 16.0937C8.24372 16.0623 8.39012 15.9569 8.47244 15.8032C8.51464 15.7245 8.53677 15.6387 8.53956 15.5528L10.2451 14.6361C10.3962 14.5548 10.5808 14.5805 10.7044 14.7006L13.6292 17.5803C13.6922 17.6435 13.7749 17.6751 13.8575 17.6751C13.9398 17.6751 14.0221 17.6438 14.0849 17.5811C14.211 17.4555 14.2114 17.2515 14.0858 17.1254L13.1182 16.1541L16.0756 13.8742C16.2198 13.7628 16.42 13.765 16.5621 13.8794L17.8544 14.9209V19.1556C17.8544 19.1948 17.8225 19.2267 17.7833 19.2267C17.7819 19.2267 17.7806 19.2268 17.7792 19.2269H8.04014C7.86212 19.2269 7.71787 19.3711 7.71787 19.5491C7.71787 19.7272 7.86212 19.8714 8.04014 19.8714H17.7835C18.178 19.8714 18.4989 19.5503 18.4989 19.1555L18.4989 9.56478ZM6.20869 19.2268H3.32666C3.32528 19.2268 3.32391 19.2266 3.32249 19.2266C3.30092 19.2266 3.28184 19.2168 3.26878 19.2016C3.25821 19.1891 3.25155 19.1731 3.25155 19.1555V18.3951L4.85879 17.5312H6.20869V19.2268ZM7.21286 15.9597L7.82972 16.8866H5.23214L5.849 15.9597C5.91478 15.8608 5.92089 15.7337 5.86477 15.629C5.80865 15.5243 5.69947 15.4589 5.5807 15.4589H5.2321L5.91586 14.4315C5.98169 14.3326 5.98779 14.2055 5.93167 14.1008C5.87555 13.996 5.76637 13.9307 5.64761 13.9307H5.57739L6.53091 12.4979L7.48438 13.9307H7.41417C7.29536 13.9307 7.18618 13.996 7.13011 14.1008C7.07399 14.2055 7.08009 14.3326 7.14592 14.4315L7.82968 15.4589H7.48107C7.36227 15.4589 7.25308 15.5243 7.19701 15.629C7.14093 15.7337 7.14704 15.8608 7.21286 15.9597ZM17.8544 14.093L16.9664 13.3774C16.5912 13.0753 16.0629 13.0697 15.6819 13.3638L12.6558 15.6967L11.1533 14.2382C10.827 13.9213 10.3391 13.8532 9.93952 14.0686L8.27427 14.9635L7.94887 14.4746C8.02196 14.4241 8.08354 14.3563 8.12706 14.2749C8.22632 14.0897 8.21562 13.866 8.09922 13.6911L7.01628 12.0638C6.90796 11.901 6.72646 11.8038 6.53087 11.8038C6.33532 11.8038 6.15386 11.901 6.04549 12.0638L4.9626 13.6911C4.84615 13.866 4.83546 14.0897 4.93471 14.2749C4.97828 14.3563 5.03981 14.4241 5.1129 14.4746L4.61726 15.2194C4.50086 15.3942 4.4902 15.6179 4.58946 15.8032C4.67179 15.9569 4.81814 16.0622 4.98567 16.0936L4.61739 16.647C4.55049 16.7475 4.51869 16.8641 4.52239 16.9802L3.25146 17.6634V9.56478C3.25146 9.52559 3.2833 9.49371 3.32249 9.49371H17.7833C17.8225 9.49371 17.8544 9.52559 17.8544 9.56478V14.093Z" fill="#1E2358"/>
<path d="M12.7916 10.7457C12.1295 10.7457 11.5908 11.2843 11.5908 11.9464C11.5908 12.6085 12.1295 13.1471 12.7916 13.1471C13.4537 13.1471 13.9923 12.6085 13.9923 11.9464C13.9923 11.2843 13.4537 10.7457 12.7916 10.7457ZM12.7916 12.5027C12.4849 12.5027 12.2354 12.2531 12.2354 11.9465C12.2354 11.6398 12.4849 11.3902 12.7916 11.3902C13.0983 11.3902 13.3478 11.6398 13.3478 11.9465C13.3478 12.2531 13.0983 12.5027 12.7916 12.5027Z" fill="#1E2358"/>
<path d="M18.9511 3.8503C18.8871 3.50728 18.6932 3.20981 18.4051 3.01271C18.1171 2.81557 17.7697 2.74253 17.4247 2.8072L9.2967 4.38672C9.08134 4.42711 8.86095 4.3697 8.69226 4.2295L7.67438 3.38126C7.35774 3.11747 6.94387 3.00975 6.53872 3.08563L1.06602 4.10914C0.358416 4.24183 -0.109812 4.92546 0.022316 5.63324L1.26505 12.2752V19.3865C1.26505 20.4117 2.09916 21.2458 3.12439 21.2458H17.9813C19.0065 21.2458 19.8406 20.4117 19.8406 19.3865V16.3659C20.5765 16.2901 21.1472 15.5719 21.0032 14.8191L18.9511 3.8503ZM19.1961 19.3865C19.1961 20.0564 18.6512 20.6013 17.9813 20.6013H3.12443C2.45455 20.6013 1.90962 20.0564 1.90962 19.3865V12.2513C1.90962 12.2511 1.90962 12.251 1.90962 12.2507V9.33382C1.90962 8.66394 2.4546 8.11901 3.12443 8.11901H14.1775C14.3556 8.11901 14.4998 7.97477 14.4998 7.79675C14.4998 7.61873 14.3556 7.47449 14.1775 7.47449H3.12443C2.22497 7.47449 1.47276 8.11656 1.30171 8.9664L0.655931 5.5149C0.588943 5.15629 0.826258 4.80987 1.1847 4.74267L6.65731 3.71916C6.87284 3.67868 7.09327 3.73609 7.26175 3.87643L8.27993 4.72488C8.597 4.9885 9.01108 5.09617 9.41752 5.01982L17.5455 3.44025C17.7194 3.40781 17.8953 3.44472 18.0411 3.54458C18.1869 3.64444 18.2851 3.79496 18.3175 3.96868L19.0348 7.80289C18.7351 7.596 18.3722 7.47449 17.9813 7.47449H15.6896C15.5116 7.47449 15.3674 7.61873 15.3674 7.79675C15.3674 7.97477 15.5116 8.11901 15.6896 8.11901H17.9813C18.6512 8.11901 19.1961 8.66403 19.1961 9.33386L19.1961 19.3865ZM19.8407 15.7098V12.1102L20.3697 14.9375C20.4366 15.2959 20.1996 15.6421 19.8407 15.7098Z" fill="#1E2358"/>
<path d="M6.63699 4.71158L3.67176 5.2663C3.49683 5.29905 3.38151 5.4674 3.41425 5.64232C3.44325 5.79723 3.57856 5.90538 3.73063 5.90538C3.75031 5.90538 3.77024 5.90357 3.79027 5.89983L6.7555 5.34511C6.93042 5.31237 7.04575 5.14401 7.01301 4.96909C6.98027 4.79412 6.81166 4.67896 6.63699 4.71158Z" fill="#1E2358"/>
<path d="M21.6778 4.70609H21.4056V4.43384C21.4056 4.25582 21.2613 4.11157 21.0833 4.11157C20.9053 4.11157 20.761 4.25582 20.761 4.43384V4.70609H20.4888C20.3107 4.70609 20.1665 4.85033 20.1665 5.02835C20.1665 5.20637 20.3107 5.35062 20.4888 5.35062H20.761V5.62287C20.761 5.80089 20.9053 5.94513 21.0833 5.94513C21.2613 5.94513 21.4056 5.80089 21.4056 5.62287V5.35062H21.6778C21.8558 5.35062 22.0001 5.20637 22.0001 5.02835C22.0001 4.85033 21.8558 4.70609 21.6778 4.70609Z" fill="#1E2358"/>
<path d="M19.251 1.39874C19.429 1.39874 19.5732 1.25446 19.5732 1.07648C19.5732 0.898495 19.429 0.754211 19.251 0.754211C19.073 0.754211 18.9287 0.898495 18.9287 1.07648C18.9287 1.25446 19.073 1.39874 19.251 1.39874Z" fill="#1E2358"/>
<path d="M2.18799 6.2713C2.36597 6.2713 2.51025 6.12702 2.51025 5.94904C2.51025 5.77105 2.36597 5.62677 2.18799 5.62677C2.01001 5.62677 1.86572 5.77105 1.86572 5.94904C1.86572 6.12702 2.01001 6.2713 2.18799 6.2713Z" fill="#1E2358"/>
</g>
<defs>
<clipPath id="clip0_19252_2318">
<rect width="22" height="22" fill="white"/>
</clipPath>
</defs>
</svg>
