<svg width="23" height="21" viewBox="0 0 23 21" fill="none" xmlns="http://www.w3.org/2000/svg">
<path d="M0.415527 5.4953V18.8884C0.415527 19.8823 1.46549 20.688 2.7606 20.688H13.9088C15.2039 20.688 16.2539 19.8823 16.2539 18.8884V5.4953H0.415527Z" fill="#C3D3FA"/>
<path d="M1.73543 18.8884V5.4953H0.415527V18.8884C0.415527 19.8823 1.46549 20.688 2.7606 20.688H4.0805C2.78539 20.6879 1.73543 19.8823 1.73543 18.8884Z" fill="#E8E6F4"/>
<path d="M2.76046 20.6879H13.9086C15.2038 20.6879 16.2537 19.8821 16.2537 18.8883V9.54661L0.415527 9.54651V18.8883C0.415527 19.8823 1.46535 20.6879 2.76046 20.6879Z" fill="#9AB8F6"/>
<path d="M1.73543 18.8884V9.54663H0.415527V18.8884C0.415527 19.8823 1.46549 20.688 2.7606 20.688H4.0805C2.78539 20.6879 1.73543 19.8823 1.73543 18.8884Z" fill="#E8E6F4"/>
<path d="M16.2534 18.6623H18.937C20.4339 18.6623 21.6473 17.7311 21.6473 16.5824V9.60085C21.6473 8.45215 20.4339 7.521 18.937 7.521H16.2534V9.54667H18.33C18.7042 9.54667 19.0076 9.77951 19.0076 10.0666V16.1166C19.0076 16.4038 18.7042 16.6366 18.33 16.6366H16.2534V18.6623Z" fill="#C3D3FA"/>
<path d="M18.3301 16.6366H19.65C20.0241 16.6366 20.3276 16.4038 20.3276 16.1166V10.0667C20.3276 9.77953 20.0241 9.54669 19.65 9.54669H18.3301C18.7042 9.54669 19.0076 9.77953 19.0076 10.0667V16.1166C19.0076 16.4039 18.7042 16.6366 18.3301 16.6366Z" fill="#E8E6F4"/>
<path d="M17.5733 7.521H16.2534V9.54667H17.5733V7.521Z" fill="#E8E6F4"/>
<path d="M17.5733 16.6366H16.2534V18.6623H17.5733V16.6366Z" fill="#E8E6F4"/>
<path d="M15.1116 2.59834C14.8106 2.54655 14.5246 2.57109 14.2709 2.64597C14.1489 1.81215 13.228 1.16376 12.1089 1.16376C11.5744 1.16376 11.0856 1.31215 10.7067 1.55747C10.0063 0.803837 8.85847 0.311951 7.56025 0.311951C5.83407 0.311951 4.37282 1.18081 3.87738 2.37954C3.51502 2.1728 3.06755 2.04894 2.58133 2.04894C1.39382 2.04894 0.430047 2.77908 0.406738 3.6861V5.49527H6.34604C6.71044 5.49527 7.00599 5.72197 7.00599 6.00171V6.31587C7.00599 6.59551 7.30141 6.82232 7.66595 6.82232C8.03034 6.82232 8.3259 6.59561 8.3259 6.31587V6.00171C8.3259 5.72207 8.62132 5.49527 8.98585 5.49527C9.35025 5.49527 9.64581 5.72197 9.64581 6.00171V7.32876C9.64581 7.6084 9.94123 7.83521 10.3058 7.83521C10.6702 7.83521 10.9657 7.6085 10.9657 7.32876V6.00161C10.9657 5.72197 11.2611 5.49516 11.6257 5.49516C11.9901 5.49516 12.2856 5.72187 12.2856 6.00161V6.31577C12.2856 6.59541 12.581 6.82221 12.9456 6.82221C13.31 6.82221 13.6055 6.59551 13.6055 6.31577V6.00161C13.6055 5.72197 13.9009 5.49516 14.2655 5.49516H16.2453V3.71688C16.2449 3.18922 15.7827 2.71377 15.1116 2.59834Z" fill="#FCC800"/>
<path d="M3.24426 2.12948C3.0353 2.07769 2.81292 2.04889 2.58133 2.04889C1.39382 2.04889 0.430047 2.77902 0.406738 3.68605V5.49532H1.73545V3.68605C1.75429 2.95664 2.38172 2.34236 3.24426 2.12948Z" fill="#E8E6F4"/>
<path d="M10.3054 8.14711C9.7173 8.14711 9.23893 7.78002 9.23893 7.32869V6.00164C9.23893 5.89452 9.12523 5.80727 8.98566 5.80727C8.84594 5.80727 8.73225 5.89452 8.73225 6.00164V6.3158C8.73225 6.76702 8.25388 7.13412 7.66575 7.13412C7.07776 7.13412 6.59939 6.76702 6.59939 6.3158V6.00164C6.59939 5.89452 6.4857 5.80727 6.34598 5.80727H0.406542C0.181995 5.80727 0 5.66761 0 5.49529V3.68613C0.0275093 2.60866 1.18548 1.73699 2.58113 1.73699C2.96206 1.73699 3.3312 1.80032 3.67039 1.92262C4.35515 0.75842 5.86111 0 7.56005 0C8.80082 0 9.97952 0.418155 10.7868 1.13196C11.1845 0.949871 11.6417 0.851909 12.1088 0.851909C13.2701 0.851909 14.2657 1.44082 14.5847 2.2684C14.789 2.25082 14.9968 2.25914 15.2005 2.29408C16.0412 2.43884 16.6514 3.03721 16.6514 3.71722V5.4955C16.6514 5.66782 16.4694 5.80748 16.2449 5.80748H14.2651C14.1254 5.80748 14.0117 5.89473 14.0117 6.00184V6.316C14.0117 6.76723 13.5334 7.13433 12.9454 7.13433C12.3572 7.13433 11.8789 6.76723 11.8789 6.316V6.00184C11.8789 5.89473 11.7652 5.80748 11.6255 5.80748C11.4859 5.80748 11.3722 5.89473 11.3722 6.00184V7.3289C11.3719 7.78002 10.8936 8.14711 10.3054 8.14711ZM8.98566 5.18332C9.57365 5.18332 10.052 5.55041 10.052 6.00164V7.32869C10.052 7.4359 10.1657 7.52315 10.3054 7.52315C10.4451 7.52315 10.5588 7.4359 10.5588 7.32869V6.00164C10.5588 5.55041 11.0372 5.18332 11.6252 5.18332C12.2133 5.18332 12.6917 5.55041 12.6917 6.00164V6.3158C12.6917 6.42291 12.8054 6.51016 12.9451 6.51016C13.0847 6.51016 13.1984 6.42291 13.1984 6.3158V6.00164C13.1984 5.55041 13.6767 5.18332 14.2649 5.18332H15.8381V3.71702C15.8381 3.32652 15.4951 2.98407 15.0223 2.90286C14.8174 2.86739 14.6131 2.87904 14.4165 2.93707C14.2989 2.9716 14.1672 2.96265 14.0594 2.91263C13.9518 2.86251 13.8806 2.77671 13.8665 2.68083C13.766 1.99385 13.0103 1.47576 12.1084 1.47576C11.6921 1.47576 11.2872 1.58953 10.9686 1.79585C10.8818 1.85211 10.7689 1.8778 10.6556 1.86709C10.5428 1.85627 10.4413 1.80968 10.3754 1.73876C9.72651 1.04076 8.67384 0.623957 7.55978 0.623957C6.04609 0.623957 4.72185 1.3673 4.26435 2.47389C4.22465 2.57008 4.12667 2.64547 4.00173 2.67646C3.87678 2.70725 3.73978 2.69009 3.63435 2.62987C3.32605 2.45402 2.96179 2.36095 2.581 2.36095C1.62481 2.36095 0.831784 2.95818 0.812813 3.69237L0.812948 5.18342H6.34571C6.93384 5.18342 7.4122 5.55051 7.4122 6.00174V6.3159C7.4122 6.42301 7.5259 6.51026 7.66548 6.51026C7.80519 6.51026 7.91889 6.42301 7.91889 6.3159V6.00174C7.91903 5.55041 8.39752 5.18332 8.98566 5.18332Z" fill="#253183"/>
<path d="M9.27255 2.34263C9.01264 2.0631 8.63469 1.85012 8.2085 1.74322L8.46096 1.15015C9.05099 1.29813 9.57434 1.59295 9.9344 1.98022L9.27255 2.34263Z" fill="#253183"/>
<path d="M5.55625 2.78827L4.78125 2.59962C5.09673 1.83621 5.92445 1.25791 6.94107 1.09027L7.11182 1.70019C6.37991 1.82092 5.78378 2.23783 5.55625 2.78827Z" fill="#253183"/>
<path d="M13.9086 21H2.7604C1.24319 21 0.00878906 20.0528 0.00878906 18.8884V5.4953H0.821872V18.8884C0.821872 19.7087 1.69147 20.376 2.7604 20.376H13.9086C14.9775 20.376 15.8471 19.7087 15.8471 18.8884V5.4953H16.6602V18.8884C16.6601 20.0527 15.4258 21 13.9086 21Z" fill="#253183"/>
<path d="M18.9374 18.9742H16.2537C16.0292 18.9742 15.8472 18.8345 15.8472 18.6622V16.6366C15.8472 16.4642 16.0292 16.3246 16.2537 16.3246H18.3303C18.4798 16.3246 18.6014 16.2313 18.6014 16.1166V10.0666C18.6014 9.9519 18.4798 9.85862 18.3303 9.85862H16.2537C16.0292 9.85862 15.8472 9.71896 15.8472 9.54664V7.52096C15.8472 7.34865 16.0292 7.20898 16.2537 7.20898H18.9374C20.6561 7.20898 22.0542 8.28188 22.0542 9.60082V16.5825C22.0542 17.9013 20.6561 18.9742 18.9374 18.9742ZM16.6603 18.3503H18.9374C20.2077 18.3503 21.2412 17.5572 21.2412 16.5824V9.60072C21.2412 8.62589 20.2077 7.83284 18.9374 7.83284H16.6603V9.23456H18.3303C18.9281 9.23456 19.4144 9.60779 19.4144 10.0665V16.1165C19.4144 16.5752 18.9281 16.9484 18.3303 16.9484H16.6603V18.3503Z" fill="#253183"/>
<path d="M20.6769 9.60083H19.8638V10.5595H20.6769V9.60083Z" fill="#253183"/>
<path d="M20.6769 11.5203H19.8638V16.5824H20.6769V11.5203Z" fill="#253183"/>
<path d="M3.05518 12.332V20.688H4.37508H5.03503V12.332C5.03503 11.9125 4.5919 11.5723 4.0451 11.5723C3.49831 11.5723 3.05518 11.9125 3.05518 12.332Z" fill="#FCC800"/>
<path d="M7.34473 14.3577V20.6879H8.66463H9.32458V14.3577C9.32458 13.9382 8.88145 13.598 8.33466 13.598C7.78786 13.598 7.34473 13.9382 7.34473 14.3577Z" fill="#FCC800"/>
<path d="M11.6343 12.332V20.688H12.9542H13.6141V12.332C13.6141 11.9125 13.171 11.5723 12.6242 11.5723C12.0775 11.5723 11.6343 11.9125 11.6343 12.332Z" fill="#FCC800"/>
<path d="M5.0347 21H3.05498C2.83043 21 2.64844 20.8603 2.64844 20.688V12.332C2.64844 11.7411 3.27492 11.2603 4.04491 11.2603C4.8149 11.2603 5.44138 11.7411 5.44138 12.332V20.688C5.44124 20.8603 5.25925 21 5.0347 21ZM3.46152 20.376H4.62816V12.332C4.62816 12.0851 4.36648 11.8843 4.04477 11.8843C3.72306 11.8843 3.46139 12.0851 3.46139 12.332L3.46152 20.376Z" fill="#253183"/>
<path d="M9.32425 21H7.34453C7.11998 21 6.93799 20.8603 6.93799 20.688V14.3577C6.93799 13.7668 7.56447 13.286 8.33446 13.286C9.10445 13.286 9.73093 13.7668 9.73093 14.3577V20.688C9.73079 20.8603 9.5488 21 9.32425 21ZM7.75094 20.376H8.91758V14.3577C8.91758 14.1108 8.6559 13.91 8.33419 13.91C8.01248 13.91 7.7508 14.1108 7.7508 14.3577L7.75094 20.376Z" fill="#253183"/>
<path d="M13.6139 21H11.6341C11.4095 21 11.2275 20.8603 11.2275 20.688V12.332C11.2275 11.7411 11.854 11.2603 12.624 11.2603C13.394 11.2603 14.0205 11.7411 14.0205 12.332V20.688C14.0205 20.8603 13.8385 21 13.6139 21ZM12.0406 20.376H13.2073V12.332C13.2073 12.0851 12.9456 11.8843 12.6239 11.8843C12.3022 11.8843 12.0405 12.0851 12.0405 12.332L12.0406 20.376Z" fill="#253183"/>
<path d="M16.2537 9.23468H0.415527V9.85864H16.2537V9.23468Z" fill="#253183"/>
<path d="M16.2535 10.2474H9.32422V10.8714H16.2535V10.2474Z" fill="#253183"/>
<path d="M8.33471 10.2474H6.94434V10.8714H8.33471V10.2474Z" fill="#253183"/>
</svg>
