<svg width="24" height="24" viewBox="0 0 24 24" fill="none" xmlns="http://www.w3.org/2000/svg">
<g clip-path="url(#clip0_19252_2351)">
<path fill-rule="evenodd" clip-rule="evenodd" d="M15.3396 18.0601V10.1946C15.3396 9.32988 14.6341 8.62433 13.7693 8.62433H2.27631C1.41161 8.62433 0.706055 9.32988 0.706055 10.1946V18.0601C0.706055 18.9248 1.41161 19.628 2.27631 19.628H3.60427V22.2409C3.60427 22.3369 3.66262 22.4233 3.7517 22.4592C3.84078 22.4951 3.94271 22.4732 4.00925 22.404C4.84342 21.5355 6.67589 19.628 6.67589 19.628H13.7693C14.6341 19.628 15.3396 18.9248 15.3396 18.0601Z" fill="#C3D3FA"/>
<path fill-rule="evenodd" clip-rule="evenodd" d="M3.60449 21.8457L5.73494 19.628H6.67612L4.00948 22.404C3.94294 22.4732 3.84101 22.4951 3.75193 22.4592C3.66285 22.4233 3.60449 22.3369 3.60449 22.2409V21.8457ZM12.8284 19.628C13.6931 19.628 14.3986 18.9248 14.3986 18.0601V10.1946C14.3986 9.32988 13.6931 8.62433 12.8284 8.62433H13.7696C14.6343 8.62433 15.3398 9.32988 15.3398 10.1946V18.0601C15.3398 18.9248 14.6343 19.628 13.7696 19.628H12.8284Z" fill="#89A4DA"/>
<path fill-rule="evenodd" clip-rule="evenodd" d="M16.5767 1.52374C12.8667 1.52374 9.85889 4.53146 9.85889 8.24153C9.85889 11.9516 12.8667 14.9593 16.5767 14.9593C17.327 14.9593 18.0468 14.835 18.7207 14.6104C18.7207 14.6104 21.4531 15.3418 22.491 15.6196C22.5722 15.6413 22.6587 15.6181 22.7182 15.5587C22.7776 15.4992 22.8008 15.4126 22.7791 15.3314C22.5362 14.4243 21.9575 12.2635 21.9575 12.2635C22.7972 11.1424 23.2945 9.75085 23.2945 8.24153C23.2945 4.53146 20.2867 1.52374 16.5767 1.52374Z" fill="#9AB8F6"/>
<path fill-rule="evenodd" clip-rule="evenodd" d="M14.766 1.77057C12.0675 2.64257 10.1157 5.17551 10.1157 8.16422C10.1157 11.8743 13.1235 14.882 16.8335 14.882C17.4659 14.882 18.0766 14.7937 18.6564 14.6315C18.0011 14.8428 17.3032 14.9593 16.5767 14.9593C12.8667 14.9593 9.85889 11.9516 9.85889 8.24153C9.85889 5.1588 11.9355 2.56097 14.766 1.77057ZM18.7257 14.6117C18.8103 14.587 18.8943 14.5608 18.9776 14.5331L22.7357 15.539C22.7303 15.5459 22.7244 15.5524 22.7182 15.5587C22.6587 15.6181 22.5722 15.6413 22.491 15.6196L18.7257 14.6117Z" fill="#FFD064"/>
<path d="M15.5914 6.46253C15.5914 6.83519 15.2894 7.13712 14.9168 7.13712C14.5442 7.13712 14.2422 6.83519 14.2422 6.46253C14.2422 5.8174 14.5029 5.23416 14.9256 4.81143C15.3484 4.3887 15.9316 4.12799 16.5768 4.12799C17.2219 4.12799 17.8052 4.3887 18.2279 4.81143C18.6506 5.23416 18.9113 5.8174 18.9113 6.46253C18.9113 6.92211 18.7788 7.35072 18.549 7.71157C18.3133 8.08423 17.9731 8.3847 17.5695 8.57472C17.4679 8.62183 17.3868 8.69251 17.3339 8.77797C17.2808 8.86192 17.2514 8.96503 17.2514 9.07844V9.41133C17.2514 9.78394 16.9494 10.0859 16.5768 10.0859C16.2041 10.0859 15.9022 9.78394 15.9022 9.41133V9.07844C15.9022 8.70578 16.0068 8.35524 16.1953 8.05623C16.3838 7.75872 16.6563 7.51717 16.9965 7.35806C17.1659 7.27707 17.3103 7.14893 17.4104 6.98983C17.5076 6.83816 17.5636 6.65698 17.5636 6.46253C17.5636 6.19006 17.4532 5.94408 17.2749 5.76587C17.0952 5.58616 16.8492 5.47717 16.5768 5.47717C16.3043 5.47717 16.0583 5.58616 15.8801 5.76587C15.7004 5.94408 15.5914 6.19006 15.5914 6.46253ZM16.5768 11.0109C16.9494 11.0109 17.2514 11.3128 17.2514 11.684C17.2514 12.0566 16.9494 12.3586 16.5768 12.3586C16.2041 12.3586 15.9022 12.0566 15.9022 11.684C15.9022 11.3128 16.2041 11.0109 16.5768 11.0109Z" fill="#FCC800"/>
<path fill-rule="evenodd" clip-rule="evenodd" d="M8.69133 8.07322C8.8991 8.07322 9.0678 8.24193 9.0678 8.44969C9.0678 8.65746 8.8991 8.82616 8.69133 8.82616H2.27632C1.61891 8.82616 1.08253 9.36254 1.08253 10.0199V17.8855C1.08253 18.5427 1.6191 19.0769 2.27632 19.0769H3.60427C3.81218 19.0769 3.98074 19.2454 3.98074 19.4534V21.7155L6.40437 19.1926C6.47538 19.1186 6.5734 19.0769 6.6759 19.0769H13.7694C14.4266 19.0769 14.9631 18.5427 14.9631 17.8855V15.8648C14.9631 15.6571 15.1318 15.4884 15.3396 15.4884C15.5474 15.4884 15.716 15.6571 15.716 15.8648V17.8855C15.716 18.9576 14.8415 19.8298 13.7694 19.8298H6.83627L3.87575 22.9117C3.76931 23.0225 3.6062 23.0575 3.46371 23.0001C3.32117 22.9427 3.2278 22.8045 3.2278 22.6509V19.8298H2.27632C1.20413 19.8298 0.32959 18.9576 0.32959 17.8855V10.0199C0.32959 8.94795 1.20427 8.07322 2.27632 8.07322H8.69133ZM3.76578 11.8645C3.55801 11.8645 3.38931 11.6959 3.38931 11.488C3.38931 11.2803 3.55801 11.1116 3.76578 11.1116H9.46008C9.66785 11.1116 9.83655 11.2803 9.83655 11.488C9.83655 11.6959 9.66785 11.8645 9.46008 11.8645H3.76578ZM3.76578 14.3565C3.55801 14.3565 3.38931 14.1878 3.38931 13.98C3.38931 13.7722 3.55801 13.6036 3.76578 13.6036H11.3462C11.5541 13.6036 11.7227 13.7722 11.7227 13.98C11.7227 14.1878 11.5541 14.3565 11.3462 14.3565H3.76578ZM3.76578 16.8461C3.55801 16.8461 3.38931 16.6774 3.38931 16.4696C3.38931 16.2618 3.55801 16.0932 3.76578 16.0932H12.1421C12.3498 16.0932 12.5185 16.2618 12.5185 16.4696C12.5185 16.6774 12.3498 16.8461 12.1421 16.8461H3.76578ZM16.5765 0.972656C20.4945 0.972656 23.6708 4.14894 23.6708 8.06692C23.6708 9.59459 23.1883 11.008 22.3675 12.1652L23.2479 15.4529C23.2827 15.5828 23.2455 15.7214 23.1505 15.8165C23.0554 15.9116 22.9168 15.9487 22.7869 15.914L18.7308 14.8282C18.051 15.043 17.3282 15.1612 16.5765 15.1612C12.6585 15.1612 9.4822 11.9849 9.4822 8.06692C9.4822 4.14894 12.6585 0.972656 16.5765 0.972656ZM16.5765 1.7256C13.0743 1.7256 10.2351 4.56475 10.2351 8.06692C10.2351 11.5691 13.0743 14.4082 16.5765 14.4082C17.2851 14.4082 17.9649 14.2908 18.6014 14.0786C18.6714 14.0553 18.7467 14.053 18.8179 14.0721L22.352 15.0181L21.5936 12.1863C21.5638 12.0747 21.5867 11.9556 21.6559 11.8632C22.4486 10.805 22.9178 9.49153 22.9178 8.06692C22.9178 4.56475 20.0786 1.7256 16.5765 1.7256ZM16.5765 10.4598C17.1573 10.4598 17.6276 10.9308 17.6276 11.5094C17.6276 12.09 17.1571 12.5604 16.5765 12.5604C15.9959 12.5604 15.5254 12.09 15.5254 11.5094C15.5254 10.9308 15.9957 10.4598 16.5765 10.4598ZM16.5765 11.2128C16.412 11.2128 16.2784 11.3456 16.2784 11.5094C16.2784 11.6741 16.4118 11.8075 16.5765 11.8075C16.7412 11.8075 16.8746 11.6741 16.8746 11.5094C16.8746 11.3456 16.7409 11.2128 16.5765 11.2128ZM15.9676 6.2879C15.9676 6.86852 15.4971 7.33896 14.9165 7.33896C14.3359 7.33896 13.8654 6.86852 13.8654 6.2879C13.8654 5.53877 14.1683 4.86146 14.6591 4.37059C15.1501 3.87967 15.8273 3.57689 16.5765 3.57689C17.3256 3.57689 18.003 3.87967 18.4938 4.37059C18.9847 4.86146 19.2875 5.53877 19.2875 6.2879C19.2875 6.82169 19.1334 7.31948 18.8666 7.73868C18.5929 8.1712 18.1981 8.52009 17.7286 8.74113L17.7276 8.7416C17.6964 8.75609 17.6697 8.77562 17.6526 8.8031L17.6518 8.80437C17.6344 8.83195 17.6276 8.86654 17.6276 8.90381V9.23666C17.6276 9.81727 17.1571 10.2878 16.5765 10.2878C15.9959 10.2878 15.5254 9.81727 15.5254 9.23666V8.90381C15.5254 8.45793 15.651 8.03859 15.8768 7.68047C16.1024 7.32437 16.4279 7.03402 16.8361 6.84273C16.9406 6.79223 17.0297 6.71294 17.0924 6.61336L17.0932 6.61209C17.1529 6.51887 17.1869 6.40739 17.1869 6.2879C17.1869 6.11953 17.1186 5.96757 17.0085 5.85741C16.8973 5.74626 16.7451 5.67901 16.5765 5.67901C16.4086 5.67901 16.2569 5.74565 16.146 5.85741L16.1449 5.85854C16.0342 5.96833 15.9676 6.12004 15.9676 6.2879ZM15.2146 6.2879C15.2146 5.91134 15.3655 5.57157 15.6136 5.32503C15.8602 5.07699 16.1999 4.92607 16.5765 4.92607C16.9529 4.92607 17.2927 5.0768 17.5408 5.32503C17.7872 5.57134 17.9398 5.91129 17.9398 6.2879C17.9398 6.55675 17.8621 6.80715 17.7279 7.01708C17.59 7.23562 17.3916 7.41172 17.1572 7.52376L17.1557 7.52447C16.8832 7.65186 16.6643 7.84452 16.5132 8.08277C16.3619 8.32292 16.2784 8.60456 16.2784 8.90381V9.23666C16.2784 9.40136 16.4118 9.53482 16.5765 9.53482C16.7412 9.53482 16.8746 9.40136 16.8746 9.23666V8.90381C16.8746 8.71477 16.9263 8.54362 17.0145 8.40353C17.104 8.2599 17.2384 8.13892 17.4103 8.05877C17.7482 7.89939 18.0332 7.64781 18.2309 7.33524C18.4234 7.03284 18.5346 6.67303 18.5346 6.2879C18.5346 5.74682 18.316 5.25755 17.9614 4.90296C17.6069 4.54842 17.1176 4.32983 16.5765 4.32983C16.0354 4.32983 15.5461 4.54842 15.1916 4.90296C14.837 5.25755 14.6184 5.74682 14.6184 6.2879C14.6184 6.45261 14.7518 6.58602 14.9165 6.58602C15.0812 6.58602 15.2146 6.45261 15.2146 6.2879Z" fill="#1E2358"/>
</g>
<defs>
<clipPath id="clip0_19252_2351">
<rect width="24" height="24" fill="white"/>
</clipPath>
</defs>
</svg>
