<svg width="31" height="22" viewBox="0 0 31 22" fill="none" xmlns="http://www.w3.org/2000/svg">
<path d="M21.1133 10.9758V5.88104H10.8867V10.9758H5.77344V21.1653H10.8867H21.1133H26.2266V10.9758H21.1133Z" fill="#B6BAC3"/>
<path d="M6.79614 10.9758H5.77344V21.1654H6.79614V10.9758Z" fill="#E8E6F4"/>
<path d="M22.136 10.9758H21.1133V21.1654H22.136V10.9758Z" fill="#E8E6F4"/>
<path d="M12.0166 5.88104H10.9939V21.1653H12.0166V5.88104Z" fill="#E8E6F4"/>
<path d="M21.1132 21.4792H10.8867C10.7127 21.4792 10.5717 21.3387 10.5717 21.1653V5.88106C10.5717 5.7077 10.7127 5.5672 10.8867 5.5672H21.1132C21.2872 5.5672 21.4282 5.7077 21.4282 5.88106V21.1653C21.4282 21.3387 21.2871 21.4792 21.1132 21.4792ZM11.2017 20.8515H20.7982V6.19492H11.2017V20.8515Z" fill="#4A4E5A"/>
<path d="M26.2265 21.4792H21.1132C20.9392 21.4792 20.7982 21.3387 20.7982 21.1653V10.9758C20.7982 10.8024 20.9392 10.6619 21.1132 10.6619H26.2265C26.4005 10.6619 26.5415 10.8024 26.5415 10.9758V21.1653C26.5415 21.3387 26.4005 21.4792 26.2265 21.4792ZM21.4282 20.8515H25.9115V11.2896H21.4282V20.8515Z" fill="#4A4E5A"/>
<path d="M10.8867 21.4792H5.77337C5.59939 21.4792 5.45837 21.3387 5.45837 21.1653V10.9758C5.45837 10.8024 5.59939 10.6619 5.77337 10.6619H10.8867C11.0606 10.6619 11.2017 10.8024 11.2017 10.9758V21.1653C11.2017 21.3387 11.0606 21.4792 10.8867 21.4792ZM6.08837 20.8515H10.5717V11.2896H6.08837V20.8515Z" fill="#4A4E5A"/>
<path d="M14.9773 7.91895H12.932V9.95683H14.9773V7.91895Z" fill="#8E95A2"/>
<path d="M19.068 7.91895H17.0227V9.95683H19.068V7.91895Z" fill="#8E95A2"/>
<path d="M14.9773 11.9948H12.932V14.0327H14.9773V11.9948Z" fill="#8E95A2"/>
<path d="M24.6925 11.9948H22.6472V14.0327H24.6925V11.9948Z" fill="#8E95A2"/>
<path d="M24.6925 16.0706H22.6472V18.1084H24.6925V16.0706Z" fill="#8E95A2"/>
<path d="M9.35279 11.9948H7.3075V14.0327H9.35279V11.9948Z" fill="#8E95A2"/>
<path d="M9.35279 16.0706H7.3075V18.1084H9.35279V16.0706Z" fill="#8E95A2"/>
<path d="M19.068 11.9948H17.0227V14.0327H19.068V11.9948Z" fill="#8E95A2"/>
<path d="M14.9772 10.2708H12.9319C12.758 10.2708 12.6169 10.1303 12.6169 9.95695V7.91896C12.6169 7.74561 12.758 7.6051 12.9319 7.6051H14.9772C15.1512 7.6051 15.2922 7.74561 15.2922 7.91896V9.95685C15.2922 10.1303 15.1512 10.2708 14.9772 10.2708ZM13.2469 9.64309H14.6622V8.23282H13.2469V9.64309Z" fill="#4A4E5A"/>
<path d="M19.0679 10.2708H17.0226C16.8487 10.2708 16.7076 10.1303 16.7076 9.95695V7.91896C16.7076 7.74561 16.8487 7.6051 17.0226 7.6051H19.0679C19.2419 7.6051 19.3829 7.74561 19.3829 7.91896V9.95685C19.3829 10.1303 19.2418 10.2708 19.0679 10.2708ZM17.3376 9.64309H18.7529V8.23282H17.3376V9.64309Z" fill="#4A4E5A"/>
<path d="M14.9772 14.3466H12.9319C12.758 14.3466 12.6169 14.2061 12.6169 14.0327V11.9948C12.6169 11.8215 12.758 11.681 12.9319 11.681H14.9772C15.1512 11.681 15.2922 11.8215 15.2922 11.9948V14.0327C15.2922 14.2061 15.1512 14.3466 14.9772 14.3466ZM13.2469 13.7189H14.6622V12.3087H13.2469V13.7189Z" fill="#4A4E5A"/>
<path d="M24.6926 14.3466H22.6473C22.4733 14.3466 22.3323 14.2061 22.3323 14.0327V11.9948C22.3323 11.8215 22.4733 11.681 22.6473 11.681H24.6926C24.8666 11.681 25.0076 11.8215 25.0076 11.9948V14.0327C25.0076 14.2061 24.8665 14.3466 24.6926 14.3466ZM22.9622 13.7189H24.3775V12.3087H22.9622V13.7189Z" fill="#4A4E5A"/>
<path d="M24.6926 18.4223H22.6473C22.4733 18.4223 22.3323 18.2818 22.3323 18.1085V16.0706C22.3323 15.8972 22.4733 15.7567 22.6473 15.7567H24.6926C24.8666 15.7567 25.0076 15.8972 25.0076 16.0706V18.1085C25.0076 18.2818 24.8665 18.4223 24.6926 18.4223ZM22.9622 17.7946H24.3775V16.3844H22.9622V17.7946Z" fill="#4A4E5A"/>
<path d="M9.35271 14.3466H7.30731C7.13332 14.3466 6.99231 14.2061 6.99231 14.0327V11.9948C6.99231 11.8215 7.13332 11.681 7.30731 11.681H9.3526C9.52659 11.681 9.6676 11.8215 9.6676 11.9948V14.0327C9.66771 14.2061 9.52669 14.3466 9.35271 14.3466ZM7.62231 13.7189H9.0376V12.3087H7.62231V13.7189Z" fill="#4A4E5A"/>
<path d="M9.35271 18.4223H7.30731C7.13332 18.4223 6.99231 18.2818 6.99231 18.1085V16.0706C6.99231 15.8972 7.13332 15.7567 7.30731 15.7567H9.3526C9.52659 15.7567 9.6676 15.8972 9.6676 16.0706V18.1085C9.66771 18.2818 9.52669 18.4223 9.35271 18.4223ZM7.62231 17.7946H9.0376V16.3844H7.62231V17.7946Z" fill="#4A4E5A"/>
<path d="M19.0679 14.3466H17.0226C16.8487 14.3466 16.7076 14.2061 16.7076 14.0327V11.9948C16.7076 11.8215 16.8487 11.681 17.0226 11.681H19.0679C19.2419 11.681 19.3829 11.8215 19.3829 11.9948V14.0327C19.3829 14.2061 19.2418 14.3466 19.0679 14.3466ZM17.3376 13.7189H18.7529V12.3087H17.3376V13.7189Z" fill="#4A4E5A"/>
<path d="M18.0453 17.7238H13.9547V21.1653H18.0453V17.7238Z" fill="#8E95A2"/>
<path d="M18.0452 21.4792H13.9546C13.7807 21.4792 13.6396 21.3387 13.6396 21.1653V17.7238C13.6396 17.5504 13.7807 17.4099 13.9546 17.4099H18.0452C18.2192 17.4099 18.3602 17.5504 18.3602 17.7238V21.1653C18.3602 21.3387 18.2192 21.4792 18.0452 21.4792ZM14.2696 20.8515H17.7302V18.0376H14.2696V20.8515Z" fill="#4A4E5A"/>
<path d="M16.3149 17.7238H15.6849V21.1653H16.3149V17.7238Z" fill="#4A4E5A"/>
<path d="M19.068 17.7238H12.932V16.5937C12.932 16.3048 13.1671 16.0706 13.457 16.0706H18.543C18.8329 16.0706 19.068 16.3048 19.068 16.5937V17.7238Z" fill="#D8DBDF"/>
<path d="M19.0679 18.0376H12.9319C12.758 18.0376 12.6169 17.8971 12.6169 17.7238V16.5937C12.6169 16.1322 12.9938 15.7567 13.4569 15.7567H18.5429C19.0061 15.7567 19.3829 16.1322 19.3829 16.5937V17.7238C19.3829 17.8971 19.2418 18.0376 19.0679 18.0376ZM13.2469 17.4099H18.7529V16.5937C18.7529 16.4783 18.6587 16.3844 18.5429 16.3844H13.4569C13.3411 16.3844 13.2469 16.4783 13.2469 16.5937V17.4099Z" fill="#4A4E5A"/>
<path d="M14.2696 16.0706H13.6396V17.7238H14.2696V16.0706Z" fill="#4A4E5A"/>
<path d="M15.2922 16.0706H14.6622V17.7238H15.2922V16.0706Z" fill="#4A4E5A"/>
<path d="M16.3149 16.0706H15.6849V17.7238H16.3149V16.0706Z" fill="#4A4E5A"/>
<path d="M17.3376 16.0706H16.7076V17.7238H17.3376V16.0706Z" fill="#4A4E5A"/>
<path d="M18.3602 16.0706H17.7302V17.7238H18.3602V16.0706Z" fill="#4A4E5A"/>
<path d="M22.1359 3.84314H9.86401V5.88102H22.1359V3.84314Z" fill="#F7F8F8"/>
<path d="M10.8867 8.93793H4.75073V10.9758H10.8867V8.93793Z" fill="#F7F8F8"/>
<path d="M5.77343 8.93793H4.75073V10.9758H5.77343V8.93793Z" fill="#E8E6F4"/>
<path d="M10.8867 3.84314H9.86401V5.88102H10.8867V3.84314Z" fill="#E8E6F4"/>
<path d="M27.2493 8.93793H21.1133V10.9758H27.2493V8.93793Z" fill="#F7F8F8"/>
<path d="M22.136 8.93793H21.1133V10.9758H22.136V8.93793Z" fill="#E8E6F4"/>
<path d="M22.1359 6.1949H9.86395C9.68997 6.1949 9.54895 6.05439 9.54895 5.88104V3.84316C9.54895 3.6698 9.68997 3.5293 9.86395 3.5293H22.1358C22.3098 3.5293 22.4508 3.6698 22.4508 3.84316V5.88104C22.4509 6.05439 22.3098 6.1949 22.1359 6.1949ZM10.179 5.56718H21.8208V4.15701H10.179V5.56718Z" fill="#4A4E5A"/>
<path d="M10.8867 11.2897H4.75079C4.57681 11.2897 4.43579 11.1492 4.43579 10.9758V8.93794C4.43579 8.76459 4.57681 8.62408 4.75079 8.62408H10.8868C11.0608 8.62408 11.2018 8.76459 11.2018 8.93794V10.9758C11.2017 11.1492 11.0607 11.2897 10.8867 11.2897ZM5.06579 10.662H10.5718V9.2518H5.06579V10.662Z" fill="#4A4E5A"/>
<path d="M27.2491 11.2897H21.1131C20.9391 11.2897 20.7981 11.1492 20.7981 10.9758V8.93794C20.7981 8.76459 20.9391 8.62408 21.1131 8.62408H27.2491C27.4231 8.62408 27.5641 8.76459 27.5641 8.93794V10.9758C27.5641 11.1492 27.4231 11.2897 27.2491 11.2897ZM21.4282 10.662H26.9342V9.2518H21.4282V10.662Z" fill="#4A4E5A"/>
<path d="M9.86402 9.64307H7.81873V10.2708H9.86402V9.64307Z" fill="#4A4E5A"/>
<path d="M7.09362 9.64307H6.07092V10.2708H7.09362V9.64307Z" fill="#4A4E5A"/>
<path d="M26.4403 9.64307H24.395V10.2708H26.4403V9.64307Z" fill="#4A4E5A"/>
<path d="M23.6699 9.64307H22.6472V10.2708H23.6699V9.64307Z" fill="#4A4E5A"/>
<path d="M21.1132 4.54828H20.0906V5.176H21.1132V4.54828Z" fill="#4A4E5A"/>
<path d="M19.068 4.54828H10.8867V5.176H19.068V4.54828Z" fill="#4A4E5A"/>
<path d="M10.8317 0.892894L11.059 1.35176C11.0744 1.38262 11.1039 1.40407 11.1381 1.40898L11.6464 1.48253C11.7325 1.49498 11.7669 1.60044 11.7046 1.66101L11.3368 2.01818C11.312 2.04224 11.3007 2.07687 11.3065 2.11077L11.3934 2.61514C11.4081 2.70062 11.3181 2.76579 11.241 2.72541L10.7864 2.4873C10.7558 2.47129 10.7193 2.47129 10.6886 2.4873L10.2339 2.72541C10.1569 2.76579 10.0669 2.70062 10.0816 2.61514L10.1684 2.11077C10.1743 2.07687 10.163 2.04224 10.1382 2.01818L9.77037 1.66101C9.708 1.60044 9.74244 1.49498 9.82854 1.48253L10.3368 1.40898C10.3711 1.40407 10.4006 1.38262 10.4159 1.35176L10.6432 0.892894C10.682 0.815162 10.7932 0.815162 10.8317 0.892894Z" fill="#8E95A2"/>
<path d="M13.4628 0.892894L13.6901 1.35176C13.7055 1.38262 13.735 1.40407 13.7692 1.40898L14.2775 1.48253C14.3636 1.49498 14.3981 1.60044 14.3357 1.66101L13.9679 2.01818C13.9431 2.04224 13.9319 2.07687 13.9376 2.11077L14.0245 2.61514C14.0392 2.70062 13.9492 2.76579 13.8721 2.72541L13.4175 2.4873C13.3869 2.47129 13.3504 2.47129 13.3197 2.4873L12.8651 2.72541C12.788 2.76579 12.698 2.70062 12.7127 2.61514L12.7995 2.11077C12.8054 2.07687 12.7941 2.04224 12.7693 2.01818L12.4015 1.66101C12.3391 1.60044 12.3735 1.49498 12.4596 1.48253L12.968 1.40898C13.0022 1.40407 13.0317 1.38262 13.047 1.35176L13.2743 0.892894C13.3131 0.815162 13.4243 0.815162 13.4628 0.892894Z" fill="#8E95A2"/>
<path d="M16.094 0.892894L16.3214 1.35176C16.3367 1.38262 16.3662 1.40407 16.4004 1.40898L16.9087 1.48253C16.9948 1.49498 17.0293 1.60044 16.9669 1.66101L16.5991 2.01818C16.5743 2.04224 16.5631 2.07687 16.5689 2.11077L16.6557 2.61514C16.6704 2.70062 16.5804 2.76579 16.5033 2.72541L16.0487 2.4873C16.0181 2.47129 15.9816 2.47129 15.9509 2.4873L15.4963 2.72541C15.4192 2.76579 15.3292 2.70062 15.3439 2.61514L15.4308 2.11077C15.4366 2.07687 15.4253 2.04224 15.4005 2.01818L15.0327 1.66101C14.9703 1.60044 15.0048 1.49498 15.0909 1.48253L15.5992 1.40898C15.6334 1.40407 15.6629 1.38262 15.6782 1.35176L15.9056 0.892894C15.9443 0.815162 16.0556 0.815162 16.094 0.892894Z" fill="#8E95A2"/>
<path d="M18.7254 0.892894L18.9527 1.35176C18.968 1.38262 18.9975 1.40407 19.0318 1.40898L19.5401 1.48253C19.6262 1.49498 19.6606 1.60044 19.5983 1.66101L19.2304 2.01818C19.2057 2.04224 19.1944 2.07687 19.2002 2.11077L19.287 2.61514C19.3017 2.70062 19.2117 2.76579 19.1347 2.72541L18.68 2.4873C18.6495 2.47129 18.6129 2.47129 18.5823 2.4873L18.1276 2.72541C18.0506 2.76579 17.9606 2.70062 17.9753 2.61514L18.0621 2.11077C18.068 2.07687 18.0566 2.04224 18.0319 2.01818L17.664 1.66101C17.6017 1.60044 17.6361 1.49498 17.7222 1.48253L18.2305 1.40898C18.2648 1.40407 18.2943 1.38262 18.3096 1.35176L18.5369 0.892894C18.5756 0.815162 18.6869 0.815162 18.7254 0.892894Z" fill="#8E95A2"/>
<path d="M21.3565 0.892894L21.5838 1.35176C21.5991 1.38262 21.6287 1.40407 21.6629 1.40898L22.1712 1.48253C22.2573 1.49498 22.2917 1.60044 22.2294 1.66101L21.8615 2.01818C21.8368 2.04224 21.8255 2.07687 21.8313 2.11077L21.9181 2.61514C21.9328 2.70062 21.8429 2.76579 21.7658 2.72541L21.3111 2.4873C21.2806 2.47129 21.244 2.47129 21.2134 2.4873L20.7587 2.72541C20.6817 2.76579 20.5917 2.70062 20.6064 2.61514L20.6932 2.11077C20.6991 2.07687 20.6877 2.04224 20.663 2.01818L20.2952 1.66101C20.2328 1.60044 20.2672 1.49498 20.3533 1.48253L20.8616 1.40898C20.8959 1.40407 20.9254 1.38262 20.9407 1.35176L21.168 0.892894C21.2067 0.815162 21.318 0.815162 21.3565 0.892894Z" fill="#8E95A2"/>
</svg>
