<svg width="34" height="22" viewBox="0 0 34 22" fill="none" xmlns="http://www.w3.org/2000/svg">
<path d="M6.8479 5.4953V18.8884C6.8479 19.8823 7.89786 20.688 9.19297 20.688H20.3412C21.6363 20.688 22.6862 19.8823 22.6862 18.8884V5.4953H6.8479Z" fill="#B6BAC3"/>
<path d="M8.16756 18.8884V5.4953H6.84766V18.8884C6.84766 19.8823 7.89762 20.688 9.19272 20.688H10.5126C9.21752 20.6879 8.16756 19.8823 8.16756 18.8884Z" fill="#F7F8F8"/>
<path d="M9.19283 20.6879H20.341C21.6361 20.6879 22.6861 19.8821 22.6861 18.8883V9.54661L6.8479 9.54651V18.8883C6.8479 19.8823 7.89773 20.6879 9.19283 20.6879Z" fill="#8E95A2"/>
<path d="M8.16756 18.8884V9.54663H6.84766V18.8884C6.84766 19.8823 7.89762 20.688 9.19272 20.688H10.5126C9.21752 20.6879 8.16756 19.8823 8.16756 18.8884Z" fill="#F7F8F8"/>
<path d="M22.686 18.6623H25.3696C26.8665 18.6623 28.0799 17.7311 28.0799 16.5824V9.60085C28.0799 8.45215 26.8665 7.521 25.3696 7.521H22.686V9.54667H24.7627C25.1368 9.54667 25.4402 9.77951 25.4402 10.0666V16.1166C25.4402 16.4038 25.1368 16.6366 24.7627 16.6366H22.686V18.6623Z" fill="#B6BAC3"/>
<path d="M24.7627 16.6366H26.0826C26.4568 16.6366 26.7602 16.4038 26.7602 16.1166V10.0667C26.7602 9.77953 26.4568 9.54669 26.0826 9.54669H24.7627C25.1368 9.54669 25.4403 9.77953 25.4403 10.0667V16.1166C25.4403 16.4039 25.1368 16.6366 24.7627 16.6366Z" fill="#F7F8F8"/>
<path d="M24.0059 7.521H22.686V9.54667H24.0059V7.521Z" fill="#F7F8F8"/>
<path d="M24.0059 16.6366H22.686V18.6623H24.0059V16.6366Z" fill="#F7F8F8"/>
<path d="M21.5438 2.59834C21.2428 2.54655 20.9567 2.57109 20.703 2.64597C20.5811 1.81215 19.6601 1.16376 18.541 1.16376C18.0066 1.16376 17.5178 1.31215 17.1389 1.55747C16.4384 0.803837 15.2906 0.311951 13.9924 0.311951C12.2662 0.311951 10.805 1.18081 10.3095 2.37954C9.94715 2.1728 9.49968 2.04894 9.01346 2.04894C7.82595 2.04894 6.86218 2.77908 6.83887 3.6861V5.49527H12.7782C13.1426 5.49527 13.4381 5.72197 13.4381 6.00171V6.31587C13.4381 6.59551 13.7335 6.82232 14.0981 6.82232C14.4625 6.82232 14.758 6.59561 14.758 6.31587V6.00171C14.758 5.72207 15.0534 5.49527 15.418 5.49527C15.7824 5.49527 16.0779 5.72197 16.0779 6.00171V7.32876C16.0779 7.6084 16.3734 7.83521 16.7379 7.83521C17.1023 7.83521 17.3978 7.6085 17.3978 7.32876V6.00161C17.3978 5.72197 17.6933 5.49516 18.0578 5.49516C18.4222 5.49516 18.7177 5.72187 18.7177 6.00161V6.31577C18.7177 6.59541 19.0132 6.82221 19.3777 6.82221C19.7421 6.82221 20.0377 6.59551 20.0377 6.31577V6.00161C20.0377 5.72197 20.3331 5.49516 20.6976 5.49516H22.6775V3.71688C22.6771 3.18922 22.2148 2.71377 21.5438 2.59834Z" fill="#D8DBDF"/>
<path d="M9.67639 2.12948C9.46743 2.07769 9.24505 2.04889 9.01346 2.04889C7.82595 2.04889 6.86218 2.77902 6.83887 3.68605V5.49532H8.16758V3.68605C8.18642 2.95664 8.81385 2.34236 9.67639 2.12948Z" fill="#F7F8F8"/>
<path d="M16.7378 8.14711C16.1497 8.14711 15.6713 7.78002 15.6713 7.32869V6.00164C15.6713 5.89452 15.5576 5.80727 15.418 5.80727C15.2783 5.80727 15.1646 5.89452 15.1646 6.00164V6.3158C15.1646 6.76702 14.6863 7.13412 14.0981 7.13412C13.5101 7.13412 13.0318 6.76702 13.0318 6.3158V6.00164C13.0318 5.89452 12.9181 5.80727 12.7784 5.80727H6.83891C6.61437 5.80727 6.43237 5.66761 6.43237 5.49529V3.68613C6.45988 2.60866 7.61785 1.73699 9.01351 1.73699C9.39444 1.73699 9.76358 1.80032 10.1028 1.92262C10.7875 0.75842 12.2935 0 13.9924 0C15.2332 0 16.4119 0.418155 17.2191 1.13196C17.6169 0.949871 18.0741 0.851909 18.5412 0.851909C19.7024 0.851909 20.6981 1.44082 21.0171 2.2684C21.2214 2.25082 21.4292 2.25914 21.6328 2.29408C22.4736 2.43884 23.0838 3.03721 23.0838 3.71722V5.4955C23.0838 5.66782 22.9018 5.80748 22.6772 5.80748H20.6975C20.5578 5.80748 20.4441 5.89473 20.4441 6.00184V6.316C20.4441 6.76723 19.9657 7.13433 19.3777 7.13433C18.7896 7.13433 18.3113 6.76723 18.3113 6.316V6.00184C18.3113 5.89473 18.1976 5.80748 18.0578 5.80748C17.9183 5.80748 17.8046 5.89473 17.8046 6.00184V7.3289C17.8043 7.78002 17.3259 8.14711 16.7378 8.14711ZM15.418 5.18332C16.006 5.18332 16.4844 5.55041 16.4844 6.00164V7.32869C16.4844 7.4359 16.5981 7.52315 16.7378 7.52315C16.8775 7.52315 16.9912 7.4359 16.9912 7.32869V6.00164C16.9912 5.55041 17.4696 5.18332 18.0576 5.18332C18.6457 5.18332 19.1241 5.55041 19.1241 6.00164V6.3158C19.1241 6.42291 19.2378 6.51016 19.3775 6.51016C19.5171 6.51016 19.6307 6.42291 19.6307 6.3158V6.00164C19.6307 5.55041 20.1091 5.18332 20.6972 5.18332H22.2704V3.71702C22.2704 3.32652 21.9274 2.98407 21.4546 2.90286C21.2497 2.86739 21.0455 2.87904 20.8489 2.93707C20.7313 2.9716 20.5995 2.96265 20.4918 2.91263C20.3842 2.86251 20.3129 2.77671 20.2988 2.68083C20.1984 1.99385 19.4427 1.47576 18.5408 1.47576C18.1245 1.47576 17.7196 1.58953 17.401 1.79585C17.3141 1.85211 17.2013 1.8778 17.088 1.86709C16.9752 1.85627 16.8737 1.80968 16.8077 1.73876C16.1589 1.04076 15.1062 0.623957 13.9922 0.623957C12.4785 0.623957 11.1542 1.3673 10.6967 2.47389C10.657 2.57008 10.559 2.64547 10.4341 2.67646C10.3092 2.70725 10.1722 2.69009 10.0667 2.62987C9.75843 2.45402 9.39417 2.36095 9.01337 2.36095C8.05719 2.36095 7.26416 2.95818 7.24519 3.69237L7.24532 5.18342H12.7781C13.3662 5.18342 13.8446 5.55051 13.8446 6.00174V6.3159C13.8446 6.42301 13.9583 6.51026 14.0979 6.51026C14.2376 6.51026 14.3513 6.42301 14.3513 6.3159V6.00174C14.3514 5.55041 14.8299 5.18332 15.418 5.18332Z" fill="#5B616E"/>
<path d="M15.7049 2.34263C15.445 2.0631 15.0671 1.85012 14.6409 1.74322L14.8933 1.15015C15.4834 1.29813 16.0067 1.59295 16.3668 1.98022L15.7049 2.34263Z" fill="#5B616E"/>
<path d="M11.9889 2.78827L11.2139 2.59962C11.5293 1.83621 12.3571 1.25791 13.3737 1.09027L13.5444 1.70019C12.8125 1.82092 12.2164 2.23783 11.9889 2.78827Z" fill="#5B616E"/>
<path d="M20.341 21H9.19277C7.67556 21 6.44116 20.0528 6.44116 18.8884V5.4953H7.25425V18.8884C7.25425 19.7087 8.12384 20.376 9.19277 20.376H20.341C21.4099 20.376 22.2795 19.7087 22.2795 18.8884V5.4953H23.0926V18.8884C23.0924 20.0527 21.8582 21 20.341 21Z" fill="#5B616E"/>
<path d="M25.3696 18.9742H22.6858C22.4613 18.9742 22.2793 18.8345 22.2793 18.6622V16.6366C22.2793 16.4642 22.4613 16.3246 22.6858 16.3246H24.7625C24.9119 16.3246 25.0335 16.2313 25.0335 16.1166V10.0666C25.0335 9.9519 24.9119 9.85862 24.7625 9.85862H22.6858C22.4613 9.85862 22.2793 9.71896 22.2793 9.54664V7.52096C22.2793 7.34865 22.4613 7.20898 22.6858 7.20898H25.3696C27.0883 7.20898 28.4864 8.28188 28.4864 9.60082V16.5825C28.4864 17.9013 27.0883 18.9742 25.3696 18.9742ZM23.0924 18.3503H25.3696C26.6399 18.3503 27.6733 17.5572 27.6733 16.5824V9.60072C27.6733 8.62589 26.6399 7.83284 25.3696 7.83284H23.0924V9.23456H24.7625C25.3602 9.23456 25.8466 9.60779 25.8466 10.0665V16.1165C25.8466 16.5752 25.3602 16.9484 24.7625 16.9484H23.0924V18.3503Z" fill="#5B616E"/>
<path d="M27.1095 9.60083H26.2964V10.5595H27.1095V9.60083Z" fill="#5B616E"/>
<path d="M27.1095 11.5203H26.2964V16.5824H27.1095V11.5203Z" fill="#5B616E"/>
<path d="M9.48755 12.332V20.688H10.8075H11.4674V12.332C11.4674 11.9125 11.0243 11.5723 10.4775 11.5723C9.93068 11.5723 9.48755 11.9125 9.48755 12.332Z" fill="#D8DBDF"/>
<path d="M13.7771 14.3577V20.6879H15.097H15.757V14.3577C15.757 13.9382 15.3138 13.598 14.767 13.598C14.2202 13.598 13.7771 13.9382 13.7771 14.3577Z" fill="#D8DBDF"/>
<path d="M18.0664 12.332V20.688H19.3863H20.0463V12.332C20.0463 11.9125 19.6031 11.5723 19.0563 11.5723C18.5097 11.5723 18.0664 11.9125 18.0664 12.332Z" fill="#D8DBDF"/>
<path d="M11.4673 21H9.4876C9.26305 21 9.08105 20.8603 9.08105 20.688V12.332C9.08105 11.7411 9.70754 11.2603 10.4775 11.2603C11.2475 11.2603 11.874 11.7411 11.874 12.332V20.688C11.8739 20.8603 11.6919 21 11.4673 21ZM9.89414 20.376H11.0608V12.332C11.0608 12.0851 10.7991 11.8843 10.4774 11.8843C10.1557 11.8843 9.894 12.0851 9.894 12.332L9.89414 20.376Z" fill="#5B616E"/>
<path d="M15.7569 21H13.7771C13.5526 21 13.3706 20.8603 13.3706 20.688V14.3577C13.3706 13.7668 13.9971 13.286 14.7671 13.286C15.5371 13.286 16.1635 13.7668 16.1635 14.3577V20.688C16.1634 20.8603 15.9814 21 15.7569 21ZM14.1836 20.376H15.3502V14.3577C15.3502 14.1108 15.0885 13.91 14.7668 13.91C14.4451 13.91 14.1834 14.1108 14.1834 14.3577L14.1836 20.376Z" fill="#5B616E"/>
<path d="M20.0463 21H18.0665C17.8419 21 17.6599 20.8603 17.6599 20.688V12.332C17.6599 11.7411 18.2864 11.2603 19.0564 11.2603C19.8264 11.2603 20.4529 11.7411 20.4529 12.332V20.688C20.4529 20.8603 20.2709 21 20.0463 21ZM18.473 20.376H19.6396V12.332C19.6396 12.0851 19.378 11.8843 19.0562 11.8843C18.7345 11.8843 18.4729 12.0851 18.4729 12.332L18.473 20.376Z" fill="#5B616E"/>
<path d="M22.6858 9.23468H6.84766V9.85864H22.6858V9.23468Z" fill="#5B616E"/>
<path d="M22.6861 10.2474H15.7568V10.8714H22.6861V10.2474Z" fill="#5B616E"/>
<path d="M14.7668 10.2474H13.3765V10.8714H14.7668V10.2474Z" fill="#5B616E"/>
</svg>
