<svg width="22" height="22" viewBox="0 0 22 22" fill="none" xmlns="http://www.w3.org/2000/svg">
<path fill-rule="evenodd" clip-rule="evenodd" d="M15.5266 9.62145H19.2131V2.74559C19.2131 1.73183 18.3836 0.902405 17.3698 0.902405H4.71575C3.70198 0.902405 2.87256 1.73183 2.87256 2.74559V21.0977L9.19962 14.8666L15.5267 21.0977V9.62145H15.5266Z" fill="#9AB8F6"/>
<path fill-rule="evenodd" clip-rule="evenodd" d="M17.3701 0.902405C18.3838 0.902405 19.2133 1.73183 19.2133 2.74559V9.62145H15.5269V2.74559C15.5269 1.73183 16.3563 0.902405 17.3701 0.902405Z" fill="#FFE177"/>
<path fill-rule="evenodd" clip-rule="evenodd" d="M18.7404 2.74577C18.7404 1.96632 18.1063 1.33206 17.3269 1.33206C16.5474 1.33206 15.9134 1.96632 15.9134 2.74577V9.19194H18.7404V2.74577ZM19.5998 2.74577V9.62163C19.5998 9.85882 19.4074 10.0513 19.1701 10.0513H15.9134V21.0978C15.9134 21.2709 15.8095 21.4273 15.6497 21.4939C15.5961 21.5167 15.5397 21.5274 15.4838 21.5274C15.3731 21.5274 15.2642 21.4844 15.1822 21.4037L9.15665 15.4697L3.13106 21.4037C3.0077 21.5253 2.82345 21.561 2.66364 21.4939C2.50389 21.4273 2.3999 21.2708 2.3999 21.0978V6.94292C2.3999 6.70534 2.59227 6.51327 2.82963 6.51327C3.06699 6.51327 3.25928 6.70534 3.25928 6.94292V20.0716L8.85514 14.5604C9.02238 14.3959 9.29093 14.3959 9.45816 14.5604L15.054 20.0716V2.74577C15.054 2.21167 15.2396 1.72058 15.5489 1.33206H4.67282C3.89337 1.33206 3.25928 1.96632 3.25928 2.74577C3.25928 2.98296 3.06691 3.1755 2.82963 3.1755C2.59236 3.1755 2.3999 2.98296 2.3999 2.74577C2.3999 1.49233 3.41955 0.472595 4.67282 0.472595H17.3269C18.5801 0.472595 19.5998 1.49237 19.5998 2.74577ZM2.3999 4.86022C2.3999 5.09741 2.59227 5.28995 2.82963 5.28995C3.06699 5.28995 3.25928 5.09741 3.25928 4.86022V4.82804C3.25928 4.59085 3.06691 4.39831 2.82963 4.39831C2.59236 4.39831 2.3999 4.59085 2.3999 4.82804V4.86022Z" fill="#1E2358"/>
<rect x="5" y="6" width="8" height="1" fill="#FFE177"/>
<rect x="6" y="8" width="7" height="1" fill="#FFE177"/>
<rect x="8" y="10" width="5" height="1" fill="#FFE177"/>
</svg>
