<svg width="33" height="21" viewBox="0 0 33 21" fill="none" xmlns="http://www.w3.org/2000/svg">
<g clip-path="url(#clip0_19252_2075)">
<path d="M29.3916 15.1166H3.34375V3.86039C3.34375 3.05983 3.97766 2.41089 4.75967 2.41089H23.3636C23.8787 2.41089 24.3532 2.69731 24.6026 3.15883L28.0125 9.46967C28.7742 9.46967 29.3916 10.1018 29.3916 10.8815V15.1166Z" fill="#9AB8F6"/>
<path d="M29.7981 17.9401H2.93748C2.78102 17.9401 2.6543 17.8104 2.6543 17.6502V15.4065C2.6543 15.2464 2.78102 15.1166 2.93748 15.1166H29.7981C29.9546 15.1166 30.0813 15.2464 30.0813 15.4065V17.6502C30.0813 17.8104 29.9546 17.9401 29.7981 17.9401Z" fill="#C3D3FA"/>
<path d="M6.13878 2.41089H4.75967C3.97766 2.41089 3.34375 3.05983 3.34375 3.86039V15.1166H4.72286V3.86039C4.72286 3.05983 5.35677 2.41089 6.13878 2.41089Z" fill="#E8E6F4"/>
<path d="M4.03341 17.6502V15.4065C4.03341 15.2464 4.16013 15.1166 4.31659 15.1166H2.93748C2.78102 15.1166 2.6543 15.2464 2.6543 15.4065V17.6502C2.6543 17.8104 2.78102 17.9401 2.93748 17.9401H4.31659C4.16027 17.9401 4.03341 17.8104 4.03341 17.6502Z" fill="#E8E6F4"/>
<path d="M29.3916 15.5515H3.34372C3.1091 15.5515 2.91895 15.3568 2.91895 15.1166V3.86024C2.91895 2.82124 3.74471 1.97589 4.75965 1.97589H23.3637C24.0332 1.97589 24.6504 2.34841 24.9744 2.94822L28.2736 9.05396C29.1451 9.18383 29.8165 9.95381 29.8165 10.8812V15.1165C29.8164 15.3568 29.6262 15.5515 29.3916 15.5515ZM3.7685 14.6818H28.967V10.8813C28.967 10.3427 28.5389 9.90452 28.0126 9.90452C27.8582 9.90452 27.7157 9.81857 27.641 9.68014L24.231 3.3693C24.0566 3.0462 23.7241 2.84574 23.3637 2.84574H4.75965C4.2131 2.84574 3.7685 3.30103 3.7685 3.86039V14.6818Z" fill="#253183"/>
<path d="M29.7981 18.375H2.93745C2.54708 18.375 2.22949 18.0498 2.22949 17.6502V15.4065C2.22949 15.0069 2.54708 14.6818 2.93745 14.6818H29.7981C30.1884 14.6818 30.506 15.0069 30.506 15.4065V17.6502C30.506 18.0498 30.1884 18.375 29.7981 18.375ZM3.07905 17.5052H29.6565V15.5515H3.07905V17.5052Z" fill="#253183"/>
<path d="M4.91358 12.2932H3.34375V15.1166H4.91358V12.2932Z" fill="#FCC800"/>
<path d="M29.3918 12.2932H28.0127V15.1166H29.3918V12.2932Z" fill="#FCC800"/>
<path d="M4.91356 15.5515H3.34372C3.1091 15.5515 2.91895 15.3568 2.91895 15.1166V12.2931C2.91895 12.0529 3.1091 11.8583 3.34372 11.8583H4.91356C5.14817 11.8583 5.33833 12.0529 5.33833 12.2931V15.1166C5.33833 15.3568 5.14817 15.5515 4.91356 15.5515ZM3.7685 14.6818H4.48878V12.728H3.7685V14.6818Z" fill="#253183"/>
<path d="M29.3918 15.5515H28.0127C27.778 15.5515 27.5879 15.3568 27.5879 15.1166V12.2931C27.5879 12.0529 27.778 11.8583 28.0127 11.8583H29.3918C29.6264 11.8583 29.8166 12.0529 29.8166 12.2931V15.1166C29.8166 15.3568 29.6264 15.5515 29.3918 15.5515ZM28.4376 14.6818H28.9671V12.728H28.4376V14.6818Z" fill="#253183"/>
<path d="M11.4641 4.52844H4.91357V8.76374H11.4641V4.52844Z" fill="#94D3CC"/>
<path d="M6.29268 4.52844H4.91357V8.76374H6.29268V4.52844Z" fill="#E8E6F4"/>
<path d="M18.3594 4.52844H12.8433V8.76374H18.3594V4.52844Z" fill="#94D3CC"/>
<path d="M14.2224 4.52844H12.8433V8.76374H14.2224V4.52844Z" fill="#E8E6F4"/>
<path d="M23.4463 4.52844H19.7383V8.76374H21.3696L22.4965 10.8813H26.4203V9.86594L23.4463 4.52844Z" fill="#94D3CC"/>
<path d="M21.1174 4.52844H19.7383V8.76374H21.1174V4.52844Z" fill="#E8E6F4"/>
<path d="M11.464 9.19863H4.91355C4.67893 9.19863 4.48877 9.00396 4.48877 8.76378V4.52848C4.48877 4.2883 4.67893 4.09363 4.91355 4.09363H11.464C11.6986 4.09363 11.8888 4.2883 11.8888 4.52848V8.76378C11.8888 9.00396 11.6985 9.19863 11.464 9.19863ZM5.33832 8.32893H11.0393V4.96333H5.33832V8.32893Z" fill="#253183"/>
<path d="M18.3594 9.19863H12.8432C12.6086 9.19863 12.4185 9.00396 12.4185 8.76378V4.52848C12.4185 4.2883 12.6086 4.09363 12.8432 4.09363H18.3594C18.594 4.09363 18.7842 4.2883 18.7842 4.52848V8.76378C18.7842 9.00396 18.594 9.19863 18.3594 9.19863ZM13.2679 8.32893H17.9345V4.96333H13.2679V8.32893Z" fill="#253183"/>
<path d="M26.4201 11.3162H22.4963C22.3407 11.3162 22.1977 11.2291 22.1234 11.0895L21.1172 9.19863H19.7383C19.5036 9.19863 19.3135 9.00396 19.3135 8.76378V4.52848C19.3135 4.2883 19.5036 4.09363 19.7383 4.09363H23.4463C23.5989 4.09363 23.7397 4.17741 23.8153 4.31308L26.7893 9.65058C26.8258 9.71625 26.8451 9.79046 26.8451 9.86598V10.8814C26.8449 11.1215 26.6548 11.3162 26.4201 11.3162ZM22.7486 10.4465H25.9954V9.98136L23.1993 4.96333H20.1629V8.32893H21.3694C21.525 8.32893 21.668 8.41604 21.7424 8.55563L22.7486 10.4465Z" fill="#253183"/>
<path d="M20.9686 10.4465H19.2695V11.3162H20.9686V10.4465Z" fill="#253183"/>
<path d="M23.1859 20.7636C25.09 20.7636 26.6335 19.1835 26.6335 17.2342C26.6335 15.285 25.09 13.7048 23.1859 13.7048C21.2818 13.7048 19.7383 15.285 19.7383 17.2342C19.7383 19.1835 21.2818 20.7636 23.1859 20.7636Z" fill="#FCC800"/>
<path d="M9.38708 20.7636C11.2912 20.7636 12.8347 19.1835 12.8347 17.2342C12.8347 15.285 11.2912 13.7048 9.38708 13.7048C7.48301 13.7048 5.93945 15.285 5.93945 17.2342C5.93945 19.1835 7.48301 20.7636 9.38708 20.7636Z" fill="#FCC800"/>
<path d="M7.32706 17.2342C7.32706 15.5283 8.50935 14.105 10.0809 13.7763C9.85675 13.7295 9.62482 13.7048 9.38708 13.7048C7.48295 13.7048 5.93945 15.2849 5.93945 17.2342C5.93945 19.1835 7.48295 20.7636 9.38708 20.7636C9.62468 20.7636 9.85675 20.739 10.0809 20.6922C8.50935 20.3634 7.32706 18.9403 7.32706 17.2342Z" fill="#E8E6F4"/>
<path d="M21.1151 17.2342C21.1151 15.5283 22.2974 14.105 23.869 13.7763C23.6448 13.7295 23.4129 13.7048 23.1752 13.7048C21.271 13.7048 19.7275 15.2849 19.7275 17.2342C19.7275 19.1835 21.271 20.7636 23.1752 20.7636C23.4128 20.7636 23.6448 20.739 23.869 20.6922C22.2974 20.3634 21.1151 18.9403 21.1151 17.2342Z" fill="#E8E6F4"/>
<path d="M23.1859 21.1986C21.0505 21.1986 19.3135 19.4202 19.3135 17.2342C19.3135 15.0484 21.0507 13.27 23.1859 13.27C25.3211 13.27 27.0583 15.0484 27.0583 17.2342C27.0583 19.4202 25.3212 21.1986 23.1859 21.1986ZM23.1859 14.1397C21.5191 14.1397 20.163 15.5278 20.163 17.2342C20.163 18.9406 21.5191 20.3289 23.1859 20.3289C24.8527 20.3289 26.2087 18.9407 26.2087 17.2342C26.2087 15.528 24.8527 14.1397 23.1859 14.1397Z" fill="#253183"/>
<path d="M9.38706 21.1986C7.2517 21.1986 5.51465 19.4202 5.51465 17.2342C5.51465 15.0484 7.25184 13.27 9.38706 13.27C11.5223 13.27 13.2595 15.0484 13.2595 17.2342C13.2593 19.4202 11.5223 21.1986 9.38706 21.1986ZM9.38706 14.1397C7.72023 14.1397 6.3642 15.5278 6.3642 17.2342C6.3642 18.9406 7.72023 20.3289 9.38706 20.3289C11.0537 20.3289 12.4099 18.9407 12.4099 17.2342C12.4098 15.528 11.0537 14.1397 9.38706 14.1397Z" fill="#253183"/>
<path d="M9.38697 18.6546C10.1532 18.6546 10.7744 18.0187 10.7744 17.2342C10.7744 16.4498 10.1532 15.8138 9.38697 15.8138C8.6207 15.8138 7.99951 16.4498 7.99951 17.2342C7.99951 18.0187 8.6207 18.6546 9.38697 18.6546Z" fill="#FCC800"/>
<path d="M23.1858 18.6546C23.9521 18.6546 24.5733 18.0187 24.5733 17.2342C24.5733 16.4498 23.9521 15.8138 23.1858 15.8138C22.4195 15.8138 21.7983 16.4498 21.7983 17.2342C21.7983 18.0187 22.4195 18.6546 23.1858 18.6546Z" fill="#FCC800"/>
<path d="M9.38709 19.0896C8.38773 19.0896 7.57471 18.2573 7.57471 17.2342C7.57471 16.2112 8.38773 15.379 9.38709 15.379C10.3864 15.379 11.1993 16.2112 11.1993 17.2342C11.1993 18.2573 10.3863 19.0896 9.38709 19.0896ZM9.38709 16.2487C8.85612 16.2487 8.42426 16.6908 8.42426 17.2342C8.42426 17.7777 8.85612 18.2199 9.38709 18.2199C9.91792 18.2199 10.3498 17.7777 10.3498 17.2342C10.3498 16.6908 9.91792 16.2487 9.38709 16.2487Z" fill="#253183"/>
<path d="M23.1858 19.0896C22.1864 19.0896 21.3735 18.2573 21.3735 17.2342C21.3735 16.2112 22.1866 15.379 23.1858 15.379C24.185 15.379 24.998 16.2112 24.998 17.2342C24.998 18.2573 24.1851 19.0896 23.1858 19.0896ZM23.1858 16.2487C22.6549 16.2487 22.2231 16.6908 22.2231 17.2342C22.2231 17.7777 22.6549 18.2199 23.1858 18.2199C23.7166 18.2199 24.1485 17.7777 24.1485 17.2342C24.1485 16.6908 23.7166 16.2487 23.1858 16.2487Z" fill="#253183"/>
<path d="M18.3594 16.0936H14.2222V16.9633H18.3594V16.0936Z" fill="#253183"/>
<path d="M17.9005 10.4465H5.36963V11.3162H17.9005V10.4465Z" fill="#253183"/>
</g>
<defs>
<clipPath id="clip0_19252_2075">
<rect width="33" height="21" fill="white"/>
</clipPath>
</defs>
</svg>
